# This file is brought to you by Roblox Corporation
# Generated by Roblox Studio

mtllib Новый текстовый документ.mtl

g Thumb1

v 1.28891 3.03875 -6.29786 
v 0.549512 3.03875 -5.87097 
v 1.28891 2.76855 -6.29786 
v 0.549512 2.76855 -5.87097 
v 0.387392 3.03875 -6.15177 
v 0.549512 3.03875 -5.87097 
v 1.12679 3.03875 -6.57866 
v 1.28891 3.03875 -6.29786 
v 0.549512 3.03875 -5.87097 
v 0.387392 3.03875 -6.15177 
v 0.549512 2.76855 -5.87097 
v 0.387392 2.76855 -6.15177 
v 0.387392 3.03875 -6.15177 
v 1.12679 3.03875 -6.57866 
v 0.387392 2.76855 -6.15177 
v 1.12679 2.76855 -6.57866 
v 1.12679 2.76855 -6.57866 
v 1.28891 2.76855 -6.29786 
v 0.387392 2.76855 -6.15177 
v 0.549512 2.76855 -5.87097 
v 1.12679 3.03875 -6.57866 
v 1.28891 3.03875 -6.29786 
v 1.12679 2.76855 -6.57866 
v 1.28891 2.76855 -6.29786 

vn 0.503937 0 0.866142 
vn 0.503937 0 0.866142 
vn 0.503937 0 0.866142 
vn 0.503937 0 0.866142 
vn 0 1 0 
vn 0 1 0 
vn 0 1 0 
vn 0 1 0 
vn -0.866142 0 0.503937 
vn -0.866142 0 0.503937 
vn -0.866142 0 0.503937 
vn -0.866142 0 0.503937 
vn -0.496063 0 -0.866142 
vn -0.496063 0 -0.866142 
vn -0.496063 0 -0.866142 
vn -0.496063 0 -0.866142 
vn 0 -1 0 
vn 0 -1 0 
vn 0 -1 0 
vn 0 -1 0 
vn 0.866142 0 -0.496063 
vn 0.866142 0 -0.496063 
vn 0.866142 0 -0.496063 
vn 0.866142 0 -0.496063 

vt 4.35672 -5.25 
vt 4.25 -5.25 
vt 4.35672 -5.28377 
vt 4.25 -5.28377 
vt 4.29053 -5.25 
vt 4.25 -5.25 
vt 4.29053 -5.35672 
vt 4.25 -5.35672 
vt 4.29053 -5.25 
vt 4.25 -5.25 
vt 4.29053 -5.28377 
vt 4.25 -5.28377 
vt 4.35672 -5.25 
vt 4.25 -5.25 
vt 4.35672 -5.28377 
vt 4.25 -5.28377 
vt 4.29053 -5.25 
vt 4.25 -5.25 
vt 4.29053 -5.35672 
vt 4.25 -5.35672 
vt 4.29053 -5.25 
vt 4.25 -5.25 
vt 4.29053 -5.28377 
vt 4.25 -5.28377 

usemtl Thumb1Mtl

f 1/1/1 2/2/2 3/3/3 
f 3/3/3 2/2/2 4/4/4 
f 5/5/5 6/6/6 7/7/7 
f 7/7/7 6/6/6 8/8/8 
f 9/9/9 10/10/10 11/11/11 
f 11/11/11 10/10/10 12/12/12 
f 13/13/13 14/14/14 15/15/15 
f 15/15/15 14/14/14 16/16/16 
f 17/17/17 18/18/18 19/19/19 
f 19/19/19 18/18/18 20/20/20 
f 21/21/21 22/22/22 23/23/23 
f 23/23/23 22/22/22 24/24/24 

g Bottom1

v 0.419201 3.03875 -7.33748 
v 0.419201 3.03875 -6.2837 
v 0.44275 2.76958 -7.33748 
v 0.44275 2.76958 -6.2837 
v 0.0961946 3.01049 -6.2837 
v 0.419201 3.03875 -6.2837 
v 0.0961946 3.01049 -7.33748 
v 0.419201 3.03875 -7.33748 
v 0.419201 3.03875 -6.2837 
v 0.0961946 3.01049 -6.2837 
v 0.44275 2.76958 -6.2837 
v 0.119744 2.74132 -6.2837 
v 0.0961946 3.01049 -6.2837 
v 0.0961946 3.01049 -7.33748 
v 0.119744 2.74132 -6.2837 
v 0.119744 2.74132 -7.33748 
v 0.119744 2.74132 -7.33748 
v 0.44275 2.76958 -7.33748 
v 0.119744 2.74132 -6.2837 
v 0.44275 2.76958 -6.2837 
v 0.0961946 3.01049 -7.33748 
v 0.419201 3.03875 -7.33748 
v 0.119744 2.74132 -7.33748 
v 0.44275 2.76958 -7.33748 

vn 1 0.0866142 0 
vn 1 0.0866142 0 
vn 1 0.0866142 0 
vn 1 0.0866142 0 
vn -0.0866142 1 0 
vn -0.0866142 1 0 
vn -0.0866142 1 0 
vn -0.0866142 1 0 
vn 0 0 1 
vn 0 0 1 
vn 0 0 1 
vn 0 0 1 
vn -1 -0.0866142 0 
vn -1 -0.0866142 0 
vn -1 -0.0866142 0 
vn -1 -0.0866142 0 
vn 0.0866142 -1 0 
vn 0.0866142 -1 0 
vn 0.0866142 -1 0 
vn 0.0866142 -1 0 
vn 0 0 -1 
vn 0 0 -1 
vn 0 0 -1 
vn 0 0 -1 

vt 4.13172 -3.75 
vt 4 -3.75 
vt 4.13172 -3.78377 
vt 4 -3.78377 
vt 4.04053 -3.75 
vt 4 -3.75 
vt 4.04053 -3.88172 
vt 4 -3.88172 
vt 4.04053 -3.75 
vt 4 -3.75 
vt 4.04053 -3.78377 
vt 4 -3.78377 
vt 4.13172 -3.75 
vt 4 -3.75 
vt 4.13172 -3.78377 
vt 4 -3.78377 
vt 4.04053 -3.75 
vt 4 -3.75 
vt 4.04053 -3.88172 
vt 4 -3.88172 
vt 4.04053 -3.75 
vt 4 -3.75 
vt 4.04053 -3.78377 
vt 4 -3.78377 

usemtl Thumb1Mtl

f 25/25/25 26/26/26 27/27/27 
f 27/27/27 26/26/26 28/28/28 
f 29/29/29 30/30/30 31/31/31 
f 31/31/31 30/30/30 32/32/32 
f 33/33/33 34/34/34 35/35/35 
f 35/35/35 34/34/34 36/36/36 
f 37/37/37 38/38/38 39/39/39 
f 39/39/39 38/38/38 40/40/40 
f 41/41/41 42/42/42 43/43/43 
f 43/43/43 42/42/42 44/44/44 
f 45/45/45 46/46/46 47/47/47 
f 47/47/47 46/46/46 48/48/48 

g Middle1

v 0.0961949 3.01049 -7.33748 
v 0.0961949 3.01049 -6.2837 
v 0.143115 2.7444 -7.33748 
v 0.143115 2.7444 -6.2837 
v -0.223119 2.95419 -6.2837 
v 0.0961949 3.01049 -6.2837 
v -0.223119 2.95419 -7.33748 
v 0.0961949 3.01049 -7.33748 
v 0.0961949 3.01049 -6.2837 
v -0.223119 2.95419 -6.2837 
v 0.143115 2.7444 -6.2837 
v -0.176199 2.68809 -6.2837 
v -0.223119 2.95419 -6.2837 
v -0.223119 2.95419 -7.33748 
v -0.176199 2.68809 -6.2837 
v -0.176199 2.68809 -7.33748 
v -0.176199 2.68809 -7.33748 
v 0.143115 2.7444 -7.33748 
v -0.176199 2.68809 -6.2837 
v 0.143115 2.7444 -6.2837 
v -0.223119 2.95419 -7.33748 
v 0.0961949 3.01049 -7.33748 
v -0.176199 2.68809 -7.33748 
v 0.143115 2.7444 -7.33748 

vn 0.984252 0.173228 0 
vn 0.984252 0.173228 0 
vn 0.984252 0.173228 0 
vn 0.984252 0.173228 0 
vn -0.173228 0.984252 0 
vn -0.173228 0.984252 0 
vn -0.173228 0.984252 0 
vn -0.173228 0.984252 0 
vn 0 0 1 
vn 0 0 1 
vn 0 0 1 
vn 0 0 1 
vn -0.984252 -0.173228 0 
vn -0.984252 -0.173228 0 
vn -0.984252 -0.173228 0 
vn -0.984252 -0.173228 0 
vn 0.173228 -0.984252 0 
vn 0.173228 -0.984252 0 
vn 0.173228 -0.984252 0 
vn 0.173228 -0.984252 0 
vn 0 0 -1 
vn 0 0 -1 
vn 0 0 -1 
vn 0 0 -1 

vt 2.13172 -0.75 
vt 2 -0.75 
vt 2.13172 -0.783775 
vt 2 -0.783775 
vt 2.04053 -0.75 
vt 2 -0.75 
vt 2.04053 -0.881722 
vt 2 -0.881722 
vt 2.04053 -0.75 
vt 2 -0.75 
vt 2.04053 -0.783775 
vt 2 -0.783775 
vt 2.13172 -0.75 
vt 2 -0.75 
vt 2.13172 -0.783775 
vt 2 -0.783775 
vt 2.04053 -0.75 
vt 2 -0.75 
vt 2.04053 -0.881722 
vt 2 -0.881722 
vt 2.04053 -0.75 
vt 2 -0.75 
vt 2.04053 -0.783775 
vt 2 -0.783775 

usemtl Thumb1Mtl

f 49/49/49 50/50/50 51/51/51 
f 51/51/51 50/50/50 52/52/52 
f 53/53/53 54/54/54 55/55/55 
f 55/55/55 54/54/54 56/56/56 
f 57/57/57 58/58/58 59/59/59 
f 59/59/59 58/58/58 60/60/60 
f 61/61/61 62/62/62 63/63/63 
f 63/63/63 62/62/62 64/64/64 
f 65/65/65 66/66/66 67/67/67 
f 67/67/67 66/66/66 68/68/68 
f 69/69/69 70/70/70 71/71/71 
f 71/71/71 70/70/70 72/72/72 

g Tip1

v -0.223118 2.95419 -7.33748 
v -0.223118 2.95419 -6.2837 
v -0.153185 2.69319 -7.33748 
v -0.153185 2.69319 -6.2837 
v -0.536309 2.87027 -6.2837 
v -0.223118 2.95419 -6.2837 
v -0.536309 2.87027 -7.33748 
v -0.223118 2.95419 -7.33748 
v -0.223118 2.95419 -6.2837 
v -0.536309 2.87027 -6.2837 
v -0.153185 2.69319 -6.2837 
v -0.466376 2.60927 -6.2837 
v -0.536309 2.87027 -6.2837 
v -0.536309 2.87027 -7.33748 
v -0.466376 2.60927 -6.2837 
v -0.466376 2.60927 -7.33748 
v -0.466376 2.60927 -7.33748 
v -0.153185 2.69319 -7.33748 
v -0.466376 2.60927 -6.2837 
v -0.153185 2.69319 -6.2837 
v -0.536309 2.87027 -7.33748 
v -0.223118 2.95419 -7.33748 
v -0.466376 2.60927 -7.33748 
v -0.153185 2.69319 -7.33748 

vn 0.968504 0.259843 0 
vn 0.968504 0.259843 0 
vn 0.968504 0.259843 0 
vn 0.968504 0.259843 0 
vn -0.259843 0.968504 0 
vn -0.259843 0.968504 0 
vn -0.259843 0.968504 0 
vn -0.259843 0.968504 0 
vn 0 0 1 
vn 0 0 1 
vn 0 0 1 
vn 0 0 1 
vn -0.968504 -0.259843 0 
vn -0.968504 -0.259843 0 
vn -0.968504 -0.259843 0 
vn -0.968504 -0.259843 0 
vn 0.259843 -0.968504 0 
vn 0.259843 -0.968504 0 
vn 0.259843 -0.968504 0 
vn 0.259843 -0.968504 0 
vn 0 0 -1 
vn 0 0 -1 
vn 0 0 -1 
vn 0 0 -1 

vt 0.381722 -2.75 
vt 0.25 -2.75 
vt 0.381722 -2.78378 
vt 0.25 -2.78378 
vt 0.29053 -2.75 
vt 0.25 -2.75 
vt 0.29053 -2.88172 
vt 0.25 -2.88172 
vt 0.29053 -2.75 
vt 0.25 -2.75 
vt 0.29053 -2.78378 
vt 0.25 -2.78378 
vt 0.381722 -2.75 
vt 0.25 -2.75 
vt 0.381722 -2.78378 
vt 0.25 -2.78378 
vt 0.29053 -2.75 
vt 0.25 -2.75 
vt 0.29053 -2.88172 
vt 0.25 -2.88172 
vt 0.29053 -2.75 
vt 0.25 -2.75 
vt 0.29053 -2.78378 
vt 0.25 -2.78378 

usemtl Thumb1Mtl

f 73/73/73 74/74/74 75/75/75 
f 75/75/75 74/74/74 76/76/76 
f 77/77/77 78/78/78 79/79/79 
f 79/79/79 78/78/78 80/80/80 
f 81/81/81 82/82/82 83/83/83 
f 83/83/83 82/82/82 84/84/84 
f 85/85/85 86/86/86 87/87/87 
f 87/87/87 86/86/86 88/88/88 
f 89/89/89 90/90/90 91/91/91 
f 91/91/91 90/90/90 92/92/92 
f 93/93/93 94/94/94 95/95/95 
f 95/95/95 94/94/94 96/96/96 

g Base1

v 1.5 3.03875 -7.33748 
v 1.5 3.03875 -6.2837 
v 1.5 2.76855 -7.33748 
v 1.5 2.76855 -6.2837 
v 0.419201 3.03875 -6.2837 
v 1.5 3.03875 -6.2837 
v 0.419201 3.03875 -7.33748 
v 1.5 3.03875 -7.33748 
v 1.5 3.03875 -6.2837 
v 0.419201 3.03875 -6.2837 
v 1.5 2.76855 -6.2837 
v 0.419201 2.76855 -6.2837 
v 0.419201 3.03875 -6.2837 
v 0.419201 3.03875 -7.33748 
v 0.419201 2.76855 -6.2837 
v 0.419201 2.76855 -7.33748 
v 0.419201 2.76855 -7.33748 
v 1.5 2.76855 -7.33748 
v 0.419201 2.76855 -6.2837 
v 1.5 2.76855 -6.2837 
v 0.419201 3.03875 -7.33748 
v 1.5 3.03875 -7.33748 
v 0.419201 2.76855 -7.33748 
v 1.5 2.76855 -7.33748 

vn 1 0 0 
vn 1 0 0 
vn 1 0 0 
vn 1 0 0 
vn 0 1 0 
vn 0 1 0 
vn 0 1 0 
vn 0 1 0 
vn 0 0 1 
vn 0 0 1 
vn 0 0 1 
vn 0 0 1 
vn -1 0 0 
vn -1 0 0 
vn -1 0 0 
vn -1 0 0 
vn 0 -1 0 
vn 0 -1 0 
vn 0 -1 0 
vn 0 -1 0 
vn 0 0 -1 
vn 0 0 -1 
vn 0 0 -1 
vn 0 0 -1 

vt 3.88172 -1.5 
vt 3.75 -1.5 
vt 3.88172 -1.53378 
vt 3.75 -1.53378 
vt 3.8851 -1.5 
vt 3.75 -1.5 
vt 3.8851 -1.63172 
vt 3.75 -1.63172 
vt 3.8851 -1.5 
vt 3.75 -1.5 
vt 3.8851 -1.53378 
vt 3.75 -1.53378 
vt 3.88172 -1.5 
vt 3.75 -1.5 
vt 3.88172 -1.53378 
vt 3.75 -1.53378 
vt 3.8851 -1.5 
vt 3.75 -1.5 
vt 3.8851 -1.63172 
vt 3.75 -1.63172 
vt 3.8851 -1.5 
vt 3.75 -1.5 
vt 3.8851 -1.53378 
vt 3.75 -1.53378 

usemtl Thumb1Mtl

f 97/97/97 98/98/98 99/99/99 
f 99/99/99 98/98/98 100/100/100 
f 101/101/101 102/102/102 103/103/103 
f 103/103/103 102/102/102 104/104/104 
f 105/105/105 106/106/106 107/107/107 
f 107/107/107 106/106/106 108/108/108 
f 109/109/109 110/110/110 111/111/111 
f 111/111/111 110/110/110 112/112/112 
f 113/113/113 114/114/114 115/115/115 
f 115/115/115 114/114/114 116/116/116 
f 117/117/117 118/118/118 119/119/119 
f 119/119/119 118/118/118 120/120/120 

