<svg version="1.1" xmlns="http://www.w3.org/2000/svg" xmlns:xlink="http://www.w3.org/1999/xlink" width="42.6" height="42.6" viewBox="0,0,42.6,42.6"><g transform="translate(-218.7,-158.7)"><g data-paper-data="{&quot;isPaintingLayer&quot;:true}" stroke-miterlimit="10" stroke-dasharray="" stroke-dashoffset="0" style="mix-blend-mode: normal"><path d="M219.3,180c0,-11.43229 9.26771,-20.7 20.7,-20.7c11.43229,0 20.7,9.26771 20.7,20.7c0,11.43229 -9.26771,20.7 -20.7,20.7c-11.43229,0 -20.7,-9.26771 -20.7,-20.7z" fill="#ffab19" fill-rule="nonzero" stroke="#001026" stroke-width="1.2" stroke-linecap="butt" stroke-linejoin="miter"/><g fill-rule="evenodd"><path d="M243.24752,166.42793c0.14018,-0.09345 0.37381,-0.04673 0.42054,0.14018l1.2149,4.99977c0,0 2.99052,2.19616 3.87833,3.73815c1.49526,2.56998 1.54199,4.67269 1.54199,4.67269c0,0 3.31761,0.98126 3.87833,3.6447c0.56072,2.66343 -1.49526,7.70993 -10.27991,9.43883c-8.78465,1.72889 -15.84041,-0.65418 -19.15801,-5.98104c-3.31761,-5.32686 1.9158,-11.68172 1.63544,-11.3079l-0.98126,-8.36411c-0.04673,-0.18691 0.18691,-0.32709 0.37381,-0.23363l5.65395,3.69142c0,0 2.10271,-0.79436 4.29887,-0.88781c1.30835,-0.09345 2.4298,0 3.50451,0.18691z" fill="#ffab19" stroke="#001026" stroke-width="1.2" stroke-linecap="butt" stroke-linejoin="miter"/><path d="M250.16309,180.16562c0,0 3.22415,0.84108 3.78488,3.50451c0.56072,2.66343 -1.68217,7.4763 -10.37336,9.15847c-11.3079,2.33634 -16.68149,-4.39233 -13.55079,-9.34537c3.1307,-4.99977 8.50429,-0.74763 12.42935,-1.02799c3.36433,-0.23363 3.73815,-3.17743 7.70993,-2.28962z" fill="#ffffff" stroke="none" stroke-width="1" stroke-linecap="butt" stroke-linejoin="miter"/><path d="M235.44413,185.1654c0,-0.18691 0.18691,-0.32709 0.37381,-0.28036c0.88781,0.32709 3.41106,1.07472 6.21467,1.26163c2.52325,0.14018 4.01851,0 4.71941,-0.14018c0.23363,-0.04673 0.42054,0.18691 0.32709,0.42054c-0.42054,1.26163 -2.19616,4.76614 -7.10248,4.48578c-4.25214,-0.46727 -4.67269,-3.45779 -4.53251,-5.7474z" fill="#ffffff" stroke="#001026" stroke-width="1.2" stroke-linecap="round" stroke-linejoin="round"/><path d="M258.76084,180.67962c-2.19616,1.77562 -5.5605,1.82235 -5.5605,1.82235" fill="none" stroke="#001026" stroke-width="1.2" stroke-linecap="round" stroke-linejoin="round"/><path d="M258.15339,185.91303c-2.94379,0.23363 -4.76614,-0.65418 -4.76614,-0.65418" fill="none" stroke="#001026" stroke-width="1.2" stroke-linecap="round" stroke-linejoin="round"/><path d="M242.26625,181.24034c0.98126,0 2.00926,0.09345 2.05598,0.42054c0.04673,0.65418 -0.65418,1.96253 -1.40181,2.00926c-0.84108,0.09345 -2.80361,-1.07472 -2.80361,-1.82235c-0.04673,-0.56072 1.2149,-0.60745 2.14944,-0.60745z" fill="#001026" stroke="#001026" stroke-width="1.2" stroke-linecap="round" stroke-linejoin="round"/><path d="M221.23916,180.53944c0,0 4.01851,1.30835 5.65395,2.75688" fill="none" stroke="#001026" stroke-width="1.2" stroke-linecap="round" stroke-linejoin="round"/><path d="M227.0333,184.93176c-2.00926,0.79436 -5.46704,0.28036 -5.46704,0.28036" fill="none" stroke="#001026" stroke-width="1.2" stroke-linecap="round" stroke-linejoin="round"/><g><path d="M247.78002,175.7733c1.35508,2.10271 1.40181,4.48578 0.09345,5.32686c-1.30835,0.84108 -3.45779,-0.14018 -4.85959,-2.24289c-1.35508,-2.10271 -1.40181,-4.48578 -0.09345,-5.32686c1.30835,-0.88781 3.50451,0.14018 4.85959,2.24289z" fill="#ffffff" stroke="#001026" stroke-width="1.2" stroke-linecap="round" stroke-linejoin="round"/><path d="M247.59312,178.43673c0,0.514 -0.37381,0.93454 -0.84108,0.93454c-0.46727,0 -0.84108,-0.42054 -0.84108,-0.93454c0,-0.514 0.37381,-0.93454 0.84108,-0.93454c0.46727,0 0.84108,0.42054 0.84108,0.93454" fill="#001026" stroke="none" stroke-width="1" stroke-linecap="butt" stroke-linejoin="miter"/></g><g><path d="M236.19176,177.08165c1.40181,2.05598 1.30835,4.57923 0.04673,5.46704c-1.54199,0.88781 -3.59797,0.23363 -4.99977,-1.82235c-1.44853,-2.05598 -1.54199,-4.71941 -0.09345,-5.7474c1.44853,-1.07472 3.6447,0.04673 5.0465,2.10271z" fill="#ffffff" stroke="#001026" stroke-width="1.2" stroke-linecap="round" stroke-linejoin="round"/><path d="M235.9114,179.79181c0,0.514 -0.37381,0.93454 -0.84108,0.93454c-0.46727,0 -0.84108,-0.42054 -0.84108,-0.93454c0,-0.514 0.37381,-0.93454 0.84108,-0.93454c0.46727,0.04673 0.84108,0.42054 0.84108,0.93454" fill="#001026" stroke="none" stroke-width="1" stroke-linecap="butt" stroke-linejoin="miter"/></g></g></g></g></svg>