<svg version="1.1" xmlns="http://www.w3.org/2000/svg" xmlns:xlink="http://www.w3.org/1999/xlink" width="118.59381" height="131.91918" viewBox="0,0,118.59381,131.91918"><g transform="translate(-182.7792,-94.87742)"><g data-paper-data="{&quot;isPaintingLayer&quot;:true}" fill-rule="nonzero" stroke="none" stroke-width="1" stroke-linecap="butt" stroke-linejoin="miter" stroke-miterlimit="10" stroke-dasharray="" stroke-dashoffset="0" style="mix-blend-mode: normal"><g><path d="M239.226,185.71779l1.1305,13.288l-10.1122,-1.071l-13.818,-3.0853l-6.8876,-2.7288l-1.6546,-9.2375v-4.8489l7.4746,3.5901l14.5074,3.4233c0,0 8.1665,0.9845 8.3963,0.9216z" data-paper-data="{&quot;origPos&quot;:null}" fill="#897ab8"/><path d="M251.5991,185.84349l3.3914,0.1258l6.1555,-1.1967l6.2184,-1.9523l4.6476,-2.3926l3.3914,-1.9523l2.261,-2.2676l0.8797,13.6033l-6.5321,4.5344l-10.4895,3.1491l-9.1754,1.8885l-4.3281,-0.3773l1.0675,-13.0364l2.5126,-0.1258" data-paper-data="{&quot;origPos&quot;:null}" fill="#897ab8"/><path d="M277.916,175.70459l-3.1407,3.0224l-6.4692,3.2748l-8.73,3.5264l-7.7254,0.4411h-2.2618l0.3983,-13.0364v-7.1157l-1.9338,-4.9798l-2.4212,-2.1997l-2.3867,-0.6088l-2.889,2.2458l-1.445,2.4563l-0.5652,5.9199l0.4402,7.1795l0.3137,10.1389h-2.4496l-9.7348,-1.3225l-12.7504,-3.4635l-4.9622,-2.8966l-1.4441,-1.8894l-0.691,-13.6034l1.1304,-21.0343l1.6329,-12.784l4.4598,-12.784l3.2027,-6.1086l2.9519,-4.6602l5.4645,-4.3458l1.8005,1.7846l3.9541,1.2068l7.5611,1.0391l6.8457,-1.1339l5.4015,-1.9523l1.9473,-1.5607l5.4645,5.0251l5.6524,7.3052l4.3969,9.635l2.5838,8.6907l1.7502,9.058l1.3183,9.0596l1.3619,11.6032l1.9674,14.8672" data-paper-data="{&quot;origPos&quot;:null}" fill="#c1b4d8"/><path d="M251.4104,101.43429l-3.6841,2.0152l-7.3698,1.1758h-6.8667l-5.7781,-1.7637l-1.1154,-1.7636v-1.1749l4.1688,-2.5192c0,0 5.8226,-1.2597 6.0742,-1.0919c0.2507,0.1677 8.039,0 8.039,0l5.2758,1.8475l2.931,1.7636z" data-paper-data="{&quot;origPos&quot;:null}" fill="#ef463c"/><path d="M209.5387,192.12069l-3.9365,1.595l-2.3448,3.7789l-0.7531,4.6183l0.4185,5.1223l1.6747,10.1599l0.5862,4.5345l-0.8378,0.504l-1.4231,-1.1758l-3.1826,-3.7788l-3.3075,-6.2134l-5.067,-8.1447l-4.5219,-10.4962l-2.5125,-10.9164l-1.0047,-9.4043l0.8378,-5.2062l1.2555,-4.7861l2.8471,-4.2828l3.7688,-2.3507l6.4481,-1.5456l8.8769,1.9649v17.8854l1.0894,13.3517l1.0885,4.7861" data-paper-data="{&quot;origPos&quot;:null}" fill="#ef463c"/><path d="M246.7208,158.86919l1.5917,2.3506l1.3393,3.7789l0.3354,7.7254l-0.9208,10.3277l-1.0055,11.9235l-1.3401,15.7863l-2.2609,12.176l-1.1724,1.5112l-1.3402,-7.8093l-1.0885,-11.2518l-0.5023,-8.985l-0.754,-10.9994l-0.6692,-9.4882l-0.6709,-6.886l0.5862,-4.199l0.8378,-3.1062l2.115,-2.3515l2.3238,-1.3435l2.5956,0.8403" data-paper-data="{&quot;origPos&quot;:null}" fill="#ef463c"/><path d="M275.9485,157.02169l3.9357,-2.8891l6.2804,-0.041l6.1975,1.7544l5.5265,4.9914l1.8425,5.0008l0.8378,7.8092l-1.3402,9.1528l-3.4333,13.267l-4.355,11.0841l-2.2609,4.4498l-1.3401,0.9241v-7.4729v-4.7869l-1.3393,-4.1982l-2.5964,-3.4425l-2.5125,-1.7636l-3.1817,-0.9234v-6.6343l-0.5024,-8.9842l-0.7539,-7.3891l-1.0047,-9.9084" data-paper-data="{&quot;origPos&quot;:null}" fill="#ef463c"/><path d="M301.3706,172.11529c0.0201,0.9476 -0.0922,1.8827 -0.0872,2.8303c0.0025,0.468 -0.0654,0.9041 -0.125,1.362c-0.1392,1.0734 -0.3228,2.0965 -0.4151,3.1691c-0.1191,1.3611 -0.6189,2.6794 -0.8436,4.0254c-0.2114,1.263 -0.499,2.4211 -0.8286,3.6606c-0.0805,0.3027 -0.1166,0.6164 -0.1887,0.9216c-0.1627,0.6919 -0.3111,1.388 -0.5082,2.0706c-0.1946,0.6709 -0.4604,1.3225 -0.6592,1.9926c-0.1065,0.3581 -0.1056,0.7497 -0.2138,1.1078c-0.2097,0.6944 -0.5141,1.3628 -0.6835,2.0655c-0.3078,1.2798 -0.769,2.4975 -1.2395,3.7235c-0.5174,1.3485 -0.8906,2.7524 -1.3284,4.1311c-0.0234,0.0772 -0.0578,0.1501 -0.0956,0.2206c-0.3346,0.6172 -0.6868,1.2252 -0.9996,1.8533c-0.182,0.3657 -0.2315,0.8143 -0.4646,1.1347c-0.4604,0.6348 -0.66,1.3242 -0.8537,2.0747c-0.177,0.6886 -0.6726,1.3016 -1.3024,1.7561c-0.1761,0.1275 -0.1828,0.4713 -0.3036,0.6961c-0.4898,0.9065 -0.9946,1.8047 -1.4902,2.7087c-0.125,0.229 -0.2197,0.4772 -0.3631,0.6936c-0.0906,0.1367 -0.2441,0.2306 -0.3732,0.3396c-0.0436,0.0378 -0.1292,0.0512 -0.1434,0.094c-0.2156,0.6516 -0.4546,1.2981 -0.6131,1.964c-0.0578,0.2399 0.0453,0.478 -0.3446,0.4655c-0.1124,-0.0026 -0.2617,0.1467 -0.3405,0.2616c-0.2734,0.3958 -0.5728,0.4621 -0.9519,0.1493c-0.3371,-0.2785 -0.3765,-0.7858 -0.1568,-1.1187c0.1669,-0.2525 0.2482,-0.5695 0.3313,-0.8672c0.0788,-0.2843 0.0889,-0.5879 0.1694,-0.8713c0.1174,-0.4135 0.3035,-0.8085 0.4025,-1.2253c0.2793,-1.1774 0.5552,-2.3582 0.7783,-3.5465c0.0914,-0.4856 0.0528,-0.9971 0.057,-1.4969c0.0092,-0.8152 0.0159,-1.6312 0.0017,-2.4455c-0.0135,-0.7363 -0.0286,-1.4743 -0.0956,-2.2064c-0.0889,-0.982 -0.2013,-1.9632 -0.3523,-2.9377c-0.2121,-1.3753 -0.4931,-2.7347 -1.1581,-3.9835c-0.1744,-0.3279 -0.2256,-0.7203 -0.395,-1.0524c-0.1392,-0.2726 -0.3522,-0.5175 -0.5627,-0.7447c-0.6927,-0.7481 -1.3234,-1.5825 -2.1192,-2.1981c-0.9971,-0.7698 -1.9683,-1.6479 -3.3025,-1.9447c-0.1015,0.1241 -0.2139,0.2574 -0.3212,0.3941c-0.1912,0.2449 -0.3992,0.3791 -0.7011,0.156c-0.2726,-0.2004 -0.4638,-0.13 -0.6986,0.1325c-0.6533,0.7321 -1.4072,1.3368 -2.297,1.7905c-0.9141,0.4662 -1.7494,1.0868 -2.6677,1.5397c-0.6994,0.3455 -1.4743,0.5401 -2.2181,0.7933c-1.2076,0.4118 -2.4907,0.5602 -3.622,1.258c-0.5997,0.369 -1.3796,0.4453 -2.0798,0.6449c-0.9477,0.27 -1.8928,0.5493 -2.848,0.7891c-0.6709,0.1686 -1.3594,0.2659 -2.0345,0.416c-0.4285,0.0939 -0.8445,0.2557 -1.2756,0.3354c-0.9702,0.1795 -1.9456,0.3405 -2.9226,0.4831c-0.9199,0.1341 -1.8424,0.2633 -2.7691,0.3396c-0.7405,0.0621 -1.4902,0.0227 -2.2341,0.0654c-0.364,0.0218 -0.7237,0.1275 -1.086,0.1963c-0.0193,0.0042 -0.0352,0.0285 -0.0528,0.0285c-0.2659,0.0025 -0.7213,-0.0805 -0.7632,0.0167c-0.1694,0.39 -0.2407,0.8328 -0.2927,1.2622c-0.1241,1.0281 -0.2281,2.0588 -0.3203,3.0903c-0.1007,1.1254 -0.1719,2.2551 -0.2701,3.3805c-0.0402,0.4562 -0.1341,0.9082 -0.1769,1.3644c-0.1929,2.0404 -0.3522,4.0841 -0.5753,6.1228c-0.0788,0.7229 -0.3019,1.4299 -0.4587,2.1452c-0.2835,1.2848 -0.6575,2.5587 -0.8211,3.8586c-0.161,1.2747 -0.3044,2.5284 -0.8679,3.7016c-0.156,0.3246 -0.1996,0.7078 -0.3766,1.0181c-0.1291,0.2256 -0.4612,0.5653 -0.582,0.5217c-0.3816,-0.1384 -0.8797,-0.359 -1.0172,-0.6835c-0.3162,-0.7405 -0.4588,-1.5565 -0.6433,-2.349c-0.1291,-0.556 -0.2163,-1.1212 -0.3094,-1.6848c-0.2407,-1.4508 -0.5158,-2.8983 -0.6994,-4.3575c-0.1812,-1.4416 -0.2508,-2.8966 -0.4017,-4.3424c-0.1585,-1.5305 -0.3405,-3.0585 -0.5376,-4.5839c-0.1509,-1.1699 -0.4059,-2.3297 -0.4998,-3.503c-0.1443,-1.7921 -0.1912,-3.5935 -0.2801,-5.3906c-0.0042,-0.0763 -0.0277,-0.151 -0.0403,-0.2189c-1.1313,-0.1266 -2.2332,-0.2893 -3.3411,-0.364c-1.0105,-0.0671 -2.0395,0.0545 -3.0391,-0.0771c-1.3988,-0.1837 -2.775,-0.53 -4.1638,-0.7942c-0.509,-0.0981 -1.0256,-0.1669 -1.5397,-0.239c-0.6852,-0.0973 -1.3745,-0.1711 -2.058,-0.2801c-0.5669,-0.0897 -1.1397,-0.1745 -1.689,-0.333c-1.4181,-0.4109 -2.8211,-0.8746 -4.2392,-1.2881c-0.4756,-0.1384 -0.9947,-0.1367 -1.4635,-0.2918c-1.0063,-0.3338 -1.9749,-0.7909 -2.9913,-1.0802c-1.4903,-0.4243 -2.9084,-1.0214 -4.3533,-1.5615c-0.5133,-0.192 -1.2085,-0.0151 -1.7905,0.1241c-0.6843,0.1644 -1.4097,0.3606 -1.9783,0.7481c-0.5166,0.3505 -0.8629,0.9652 -1.2571,1.4843c-0.7623,1.0056 -1.1296,2.2107 -1.4852,3.3814c-0.3078,1.0172 -0.3279,2.1225 -0.4772,3.1884c-0.2138,1.5263 0.0495,3.0191 0.2592,4.5236c0.1383,0.9862 0.0729,1.9984 0.1526,2.9955c0.0562,0.6919 0.2147,1.3754 0.3078,2.0656c0.0629,0.4637 0.0696,0.935 0.1425,1.3971c0.0822,0.5284 0.203,1.0508 0.317,1.5733c0.3305,1.5129 0.7078,3.0174 0.9812,4.5395c0.1652,0.9166 0.1829,1.8609 0.2432,2.7943c0.0294,0.4486 0.0101,0.9006 0.0034,1.351c-0.0059,0.3648 -0.478,0.7766 -0.8185,0.6533c-0.3405,-0.1233 -0.6634,-0.3313 -0.9493,-0.5577c-0.2558,-0.2029 -0.4537,-0.4789 -0.6743,-0.7263c-1.2604,-1.4097 -2.6048,-2.7557 -3.7528,-4.2535c-0.9183,-1.1975 -1.601,-2.577 -2.3784,-3.8819c-0.6717,-1.128 -1.3007,-2.2828 -1.9993,-3.394c-0.8294,-1.3174 -1.7711,-2.5678 -2.5561,-3.9096c-0.7346,-1.2563 -1.3183,-2.6014 -1.9909,-3.8954c-0.4193,-0.8051 -0.9174,-1.5716 -1.3158,-2.3868c-0.4075,-0.8319 -0.7405,-1.7015 -1.1003,-2.5561c-0.6272,-1.4877 -1.3015,-2.9578 -1.8583,-4.4707c-0.515,-1.3972 -0.894,-2.8438 -1.3494,-4.2627c-0.2927,-0.9083 -0.7162,-1.7863 -0.9023,-2.7138c-0.3439,-1.7184 -0.5468,-3.4635 -0.8294,-5.1945c-0.099,-0.6046 -0.333,-1.1942 -0.3808,-1.7997c-0.083,-1.0415 -0.0604,-2.0923 -0.0981,-3.1381c-0.0159,-0.4721 -0.0579,-0.9443 -0.1115,-1.4139c-0.229,-2.0228 -0.1988,-4.0321 0.2155,-6.0364c0.1895,-0.9125 0.2206,-1.8576 0.3967,-2.7734c0.1752,-0.9141 0.3832,-1.8315 0.6868,-2.7087c0.3556,-1.0299 0.738,-2.0723 1.2781,-3.0115c0.7522,-1.3074 1.4944,-2.6962 2.5527,-3.7286c0.9435,-0.9199 1.9196,-1.98 3.3529,-2.3045c0.4595,-0.1032 0.8453,-0.5007 1.2981,-0.6726c0.7942,-0.3019 1.6211,-0.5166 2.4245,-0.7975c1.5951,-0.5585 3.1717,-0.5418 4.8129,-0.1216c1.907,0.4881 3.8585,0.8051 5.789,1.1992c0.213,0.0436 0.421,0.1065 0.7657,0.1954c0.026,-0.8109 0.0302,-1.5783 0.0788,-2.3431c0.1006,-1.585 0.2281,-3.1675 0.3363,-4.7525c0.052,-0.7531 0.0637,-1.5095 0.1275,-2.2618c0.1241,-1.4483 0.2499,-2.8974 0.4159,-4.3407c0.2432,-2.12 0.4898,-4.2409 0.7959,-6.3526c0.2708,-1.8726 0.5761,-3.7436 0.9568,-5.5969c0.3674,-1.7897 0.7825,-3.5768 1.3024,-5.327c0.5141,-1.7267 1.1456,-3.4207 1.8048,-5.0988c0.374,-0.9519 0.9182,-1.8366 1.3644,-2.7624c0.1904,-0.395 0.5275,-0.7372 0.3816,-1.268c-0.0487,-0.1736 0.1635,-0.4277 0.275,-0.6349c0.4311,-0.8051 0.8445,-1.6202 1.31,-2.4052c0.6533,-1.0994 1.3552,-2.1703 2.0194,-3.2639c0.2189,-0.3589 0.3732,-0.7573 0.5803,-1.1254c0.3103,-0.5535 0.5837,-1.1414 0.977,-1.6311c0.5099,-0.6349 1.1062,-1.2043 1.694,-1.7712c1.0433,-1.0064 2.1167,-1.9808 3.1617,-2.9855c0.3807,-0.3665 0.7103,-0.7875 1.0776,-1.1691c0.0897,-0.0922 0.239,-0.1241 0.3572,-0.1895c0.7556,-0.4185 1.5138,-0.8328 2.2643,-1.2613c0.7213,-0.4118 1.414,-0.8806 2.157,-1.2487c1.0265,-0.5091 2.0798,-0.9669 3.1406,-1.4022c0.3397,-0.14 0.7355,-0.1585 1.1087,-0.2029c1.7997,-0.2139 3.5968,-0.5317 5.4016,-0.5887c1.4281,-0.0453 2.8974,-0.0109 4.2744,0.5761c0.265,0.1132 0.6407,-0.0637 0.9368,0.0092c1.0508,0.2608 2.1108,0.5091 3.1255,0.8797c0.925,0.3397 1.7922,0.837 2.6887,1.2563c0.6382,0.2985 1.299,0.5535 1.9179,0.8864c0.3187,0.1711 0.5711,0.468 0.8495,0.712c0.1325,0.1174 0.2491,0.2558 0.3883,0.3648c0.5359,0.4219 1.1238,0.79 1.6102,1.263c1.0038,0.9787 1.9397,2.0278 2.9326,3.0199c0.9913,0.9904 1.9775,1.9926 3.0359,2.9083c1.2604,1.0902 1.9699,2.5235 2.7121,3.9558c0.1778,0.343 0.5132,0.603 0.7094,0.9401c0.333,0.5736 0.598,1.1858 0.92,1.7662c0.3757,0.6776 0.8386,1.3124 1.1607,2.0127c0.431,0.9384 0.7514,1.9271 1.1439,2.884c0.1769,0.431 0.447,0.826 0.6172,1.2605c0.4235,1.0768 0.8395,2.1577 1.2101,3.253c0.5032,1.4877 0.9787,2.9872 1.4341,4.4908c0.2943,0.9703 0.5308,1.9582 0.7933,2.9386c0.3472,1.2973 0.7229,2.5888 1.0324,3.8954c0.2717,1.1497 0.4637,2.3171 0.7078,3.4735c0.0385,0.1795 0.1274,0.442 0.2583,0.4923c0.561,0.213 0.6759,0.6961 0.8126,1.1791c0.0704,0.2483 0.078,0.525 0.192,0.7498c0.3095,0.6096 0.1468,1.0608 -0.3673,1.4575c-0.1099,0.0838 -0.2138,0.2683 -0.2055,0.3992c0.0814,1.2956 0.1015,2.6031 0.3112,3.8786c0.1996,1.2194 0.6247,2.3993 0.9099,3.6069c0.135,0.572 0.1979,1.164 0.2516,1.7519c0.0964,1.0542 0.1543,2.1125 0.2473,3.1675c0.0177,0.2063 0.1191,0.4042 0.208,0.6919c0.9762,-0.5535 1.8559,-1.1221 2.7968,-1.5599c0.5644,-0.2625 1.2202,-0.3396 1.8417,-0.4654c0.7958,-0.161 1.6017,-0.4109 2.3993,-0.3992c1.3451,0.021 2.7087,-0.0738 4.0346,0.3187c1.3368,0.395 2.7415,0.6147 4.0162,1.1497c0.795,0.3338 1.5388,0.7758 2.2659,1.2378c0.5636,0.359 1.2261,0.6676 1.7494,1.0726c1.2403,0.9586 2.3163,2.5637 3.1079,3.8988c0.3489,0.5887 0.4663,1.2244 0.7649,1.8324c0.3337,0.6818 0.712,1.3493 0.9048,2.0898c0.2097,0.8026 0.442,1.5834 0.6894,2.3625c0.2709,0.8545 0.2247,1.8693 0.2809,2.7557c0.0604,0.9468 0.0948,1.8743 0.1166,2.8094zM227.4215,101.38059c0.8344,0.4504 1.4257,1.2647 2.4748,1.419c1.3099,0.1929 2.5771,0.7069 3.8887,0.8512c2.2156,0.2449 4.4514,0.3077 6.6134,0.4428c0.1677,-0.0621 0.2583,-0.1116 0.3531,-0.1283c0.7673,-0.1325 1.5313,-0.312 2.3036,-0.3774c1.4903,-0.1267 2.9151,-0.4847 4.3064,-1.024c0.7539,-0.2935 1.5405,-0.5032 2.297,-0.7925c0.3774,-0.1442 0.7313,-0.3656 1.0751,-0.5853c0.2256,-0.1443 0.4227,-0.3397 0.6164,-0.5284c0.1073,-0.104 0.2776,-0.275 0.2482,-0.3556c-0.0469,-0.1341 -0.2155,-0.2541 -0.3597,-0.322c-1.0668,-0.5023 -2.1612,-0.9485 -3.2069,-1.4919c-1.3771,-0.7145 -2.8648,-0.9351 -4.3642,-1.1372c-0.8504,-0.114 -1.705,-0.2012 -2.557,-0.3044c-0.7095,-0.0855 -1.4206,-0.2675 -2.1268,-0.2457c-1.3191,0.0411 -2.6408,0.1602 -3.9516,0.3229c-0.7354,0.0905 -1.481,0.2574 -2.1695,0.5249c-0.8604,0.3347 -1.6269,0.9628 -2.5041,1.185c-1.1607,0.2935 -1.985,1.0441 -2.9059,1.6798c-0.3639,0.2516 -0.4402,0.6474 -0.031,0.8671zM210.083,143.00739c1.1908,0.629 2.4286,1.1951 3.6949,1.6479c1.5423,0.551 3.1315,0.977 4.7106,1.419c1.0726,0.3002 2.1536,0.5937 3.2488,0.7841c1.5557,0.27 3.1834,0.1728 4.6124,1.0281c0.1812,0.1082 0.4194,0.1544 0.6349,0.1636c2.2223,0.0989 4.4464,0.1971 6.6704,0.2683c1.024,0.0327 2.0505,-0.0151 3.0744,0.0151c0.5032,0.0151 1.003,0.1778 1.5053,0.1812c0.9401,0.0067 1.8802,-0.0747 2.8203,-0.0822c1.8098,-0.0143 3.6204,0.0402 5.4293,-0.0126c2.0446,-0.0587 4.0816,-0.1753 6.122,-0.4159c2.3967,-0.2818 4.7801,-0.5955 7.1174,-1.1926c1.4315,-0.3648 2.8261,-0.8931 4.2661,-1.2151c1.9246,-0.4303 3.6203,-1.3603 5.3512,-2.2291c0.2633,-0.1308 0.5644,-0.2172 0.7833,-0.4009c0.6877,-0.5778 1.3527,-1.1841 2.011,-1.7963c0.4546,-0.4227 0.7866,-0.8797 0.4311,-1.5632c-0.1191,-0.2298 -0.0529,-0.551 -0.0982,-0.8269c-0.1366,-0.821 -0.2591,-1.6462 -0.4386,-2.458c-0.218,-0.9879 -0.4956,-1.9624 -0.7363,-2.9452c-0.2079,-0.8521 -0.3522,-1.7217 -0.608,-2.5587c-0.5174,-1.6906 -1.0868,-3.3645 -1.6412,-5.0435c-0.4109,-1.2453 -0.8159,-2.4924 -1.2537,-3.7285c-0.2902,-0.8177 -0.6256,-1.6202 -0.9552,-2.4245c-0.3472,-0.847 -0.691,-1.6948 -1.0734,-2.5251c-0.2726,-0.592 -0.6089,-1.1531 -0.9124,-1.73c-0.3607,-0.6877 -0.7028,-1.3854 -1.0819,-2.0622c-0.2415,-0.4311 -0.54,-0.8311 -0.8067,-1.2487c-0.2424,-0.3799 -0.4185,-1.0248 -0.7271,-1.0944c-0.6147,-0.1401 -0.6592,-0.5929 -0.8923,-0.972c-0.3271,-0.53 -0.6114,-1.1061 -1.0298,-1.5548c-1.6161,-1.7334 -3.2648,-3.4384 -4.932,-5.1232c-0.5946,-0.6004 -1.2772,-1.1137 -1.9372,-1.6814c-0.2021,0.2943 -0.3355,0.7069 -0.6105,0.8504c-1.0022,0.5233 -2.0161,1.0751 -3.0912,1.3937c-1.3275,0.3942 -2.7197,0.5628 -4.0824,0.8378c-0.9544,0.1921 -1.9045,0.4043 -2.8572,0.5988c-0.66,0.1342 -1.3183,0.296 -1.9867,0.3665c-0.4789,0.0511 -0.9712,-0.0436 -1.4576,-0.0486c-1.0809,-0.0109 -2.1645,0.0469 -3.2404,-0.0269c-0.8998,-0.0612 -1.7896,-0.2801 -2.6861,-0.4109c-1.3108,-0.192 -2.6241,-0.3656 -3.934,-0.5552c-0.1124,-0.0167 -0.2155,-0.0981 -0.3204,-0.1509c-0.3958,-0.1996 -0.7749,-0.4453 -1.19,-0.5871c-0.4528,-0.1543 -0.9694,-0.1417 -1.3988,-0.3346c-0.3019,-0.1367 -0.6483,-0.3539 -0.6491,-0.8445c-0.0008,-0.2591 -0.2323,-0.5166 -0.3598,-0.7748c-0.2088,0.1165 -0.4495,0.1987 -0.6222,0.3555c-0.9636,0.8714 -1.9297,1.7427 -2.8589,2.6509c-0.7816,0.7632 -1.5758,1.528 -2.2492,2.3826c-0.5468,0.6935 -0.951,1.5078 -1.3695,2.2953c-0.6382,1.2026 -1.252,2.4194 -1.8416,3.6463c-0.925,1.9247 -1.8492,3.8518 -2.7213,5.8008c-0.5753,1.2847 -1.1146,2.5922 -1.5699,3.9231c-0.4764,1.3887 -0.9024,2.8027 -1.2253,4.2342c-0.5207,2.3096 -0.9929,4.6342 -1.3803,6.969c-0.2575,1.5523 -0.3346,3.1356 -0.4848,4.7055c-0.057,0.5971 -0.052,1.2026 -0.1492,1.7921c-0.1661,1.0131 0.0754,1.8333 0.977,2.3088zM208.6959,191.49589c-0.1292,-0.3355 -0.2902,-0.6038 -0.3321,-0.889c-0.2197,-1.5112 -0.4193,-3.0265 -0.608,-4.5419c-0.2122,-1.6924 -0.4353,-3.3847 -0.5971,-5.0821c-0.1267,-1.3301 -0.1594,-2.6702 -0.2483,-4.0036c-0.145,-2.1762 -0.3237,-4.3491 -0.447,-6.5253c-0.0712,-1.263 -0.062,-2.531 -0.0897,-3.7965c-0.0084,-0.3958 -0.0218,-0.7925 -0.0285,-1.19c-0.0176,-0.9736 -0.0629,-1.9481 -0.0444,-2.9209c0.0327,-1.7712 0.1149,-3.5407 0.1383,-5.3119c0.0025,-0.1895 -0.2088,-0.4881 -0.3874,-0.5543c-0.535,-0.1979 -1.1003,-0.3137 -1.6571,-0.4445c-1.3007,-0.3061 -2.6149,-0.5627 -3.9038,-0.9116c-1.3267,-0.3581 -2.6459,-0.665 -4.0187,-0.3405c-0.8042,0.1904 -1.6043,0.4068 -2.3976,0.6374c-0.686,0.1996 -1.3838,0.3841 -2.0354,0.6701c-0.894,0.3924 -1.5984,1.0709 -2.3699,1.6588c-1.2546,0.9568 -2.0631,2.2123 -2.7524,3.5163c-0.7153,1.3519 -1.1405,2.8656 -1.637,4.3265c-0.6466,1.9053 -0.8915,3.9105 -0.9778,5.8913c-0.0973,2.2358 0.135,4.4883 0.2407,6.7325c0.0293,0.6155 0.0821,1.2353 0.1903,1.8408c0.2348,1.3108 0.582,2.6056 0.7573,3.9231c0.2835,2.1427 0.7724,4.225 1.5179,6.2511c0.4596,1.2478 0.899,2.5033 1.377,3.7436c0.6315,1.6353 1.2429,3.2807 1.9549,4.8816c0.5744,1.2907 1.2998,2.5125 1.928,3.7805c0.2507,0.5041 0.4033,1.0559 0.6289,1.5733c0.1099,0.2524 0.3128,0.4646 0.4252,0.7162c0.3589,0.7975 0.6416,1.6068 1.2412,2.3054c0.6029,0.7027 1.0181,1.5632 1.4676,2.3942c0.6574,1.2135 1.4751,2.3398 2.2768,3.4753c0.0285,0.0989 0.068,0.1945 0.1275,0.2843c0.4109,0.6197 0.6231,1.2998 0.9829,1.9473c0.2558,0.8336 0.7464,1.5598 1.2386,2.2542c0.6349,0.8956 1.5163,1.6135 2.2098,2.4739c0.395,0.4906 0.8453,0.7372 1.5104,0.8236c-0.1476,-0.8814 -0.2432,-1.7134 -0.4311,-2.5235c-0.431,-1.8542 -0.9778,-3.684 -1.3418,-5.5508c-0.3379,-1.7335 -0.5375,-3.4996 -0.7262,-5.2582c-0.1317,-1.2202 -0.1795,-2.453 -0.1971,-3.6807c-0.0176,-1.1842 -0.0352,-2.38 0.1048,-3.5516c0.2709,-2.2651 1.1951,-4.3046 2.3448,-6.2603c0.3405,-0.5795 0.7414,-1.0751 1.2907,-1.3972c0.6843,-0.4 1.4315,-0.696 2.1636,-1.0072c0.3833,-0.1627 0.7925,-0.2599 1.1112,-0.3597zM213.71,182.15609c-1.3728,-0.3304 -2.5452,-1.0583 -3.695,-1.8357c-0.426,-0.2877 -0.8503,-0.5762 -1.4424,-0.9787c0.2013,4.1705 0.6323,8.133 1.3787,12.0812c1.4332,0 2.4823,1.2152 4.0187,1.5372c0,-1.5045 0.0218,-2.9352 -0.0059,-4.365c-0.026,-1.2991 -0.1308,-2.5956 -0.1467,-3.8938c-0.0051,-0.4075 0.1341,-0.8268 0.2599,-1.2243c0.1937,-0.6164 0.0587,-1.2194 -0.3673,-1.3209zM227.1724,195.41309c-0.1031,-1.2294 -0.2918,-2.4555 -0.3388,-3.6874c-0.0654,-1.7083 -0.0637,-3.4225 -0.0243,-5.1333c0.0151,-0.6566 -0.166,-0.9468 -0.8294,-1.1061c-2.3766,-0.572 -4.7357,-1.216 -7.1031,-1.8265c-0.1283,-0.0327 -0.2919,-0.0629 -0.4,-0.0118c-0.577,0.2701 -1.0953,0.0545 -1.6261,-0.1434c-0.4831,-0.1794 -0.9728,-0.3413 -1.5263,-0.5342c0,1.0768 -0.0244,2.0538 0.0058,3.03c0.0361,1.169 0.1191,2.3364 0.177,3.5046c0.005,0.0989 -0.0235,0.1987 -0.031,0.2985c-0.0277,0.3372 -0.0772,0.676 -0.0713,1.0123c0.0084,0.509 0.1216,1.0239 0.0746,1.5254c-0.0864,0.9175 0.1526,1.3846 0.9938,1.6362c1.1036,0.3304 2.2232,0.6122 3.3159,0.9761c2.0052,0.6693 4.0187,1.2949 6.1035,1.6664c0.3975,0.0704 0.795,0.1358 1.2848,0.2197c0,-0.5636 0.031,-0.9971 -0.005,-1.4265zM239.4616,196.47309c-0.1459,-2.2676 -0.3153,-4.5336 -0.4847,-6.8004c-0.0637,-0.8629 -0.1501,-1.7242 -0.2247,-2.5779c-0.4093,0.0335 -0.7665,0.1082 -1.1171,0.0847c-1.2177,-0.0839 -2.4412,-0.1459 -3.6472,-0.3229c-0.9979,-0.1459 -1.9657,-0.4998 -2.9628,-0.6541c-0.9082,-0.1401 -1.8383,-0.1476 -2.7599,-0.1736c-0.0931,-0.0034 -0.2743,0.2633 -0.2793,0.4092c-0.0235,0.6785 0.1644,1.3351 0.2684,1.9918c0.2289,1.4483 0.1199,2.9511 0.1417,4.4321c0.0025,0.1937 -0.073,0.3908 -0.0562,0.582c0.0688,0.8093 0.2105,1.6152 0.2281,2.4245c0.0185,0.8017 0.2776,1.2789 1.0248,1.4365c1.1053,0.2348 2.2115,0.4755 3.3285,0.6307c1.1095,0.1534 2.2333,0.2096 3.352,0.2969c0.7707,0.0603 1.5439,0.0872 2.3138,0.1576c0.4436,0.0403 0.8059,0.0445 0.8118,-0.5526c0.005,-0.4554 0.093,-0.9133 0.0628,-1.3645zM248.7092,178.55509c0.0981,-1.6739 0.187,-3.3478 0.2784,-5.0226c0.0075,-0.1392 -0.0017,-0.2801 -0.0017,-0.4201c0.0017,-0.473 -0.0268,-0.9502 0.0126,-1.4206c0.0403,-0.473 0.218,-0.9401 0.2096,-1.4081c-0.0159,-0.8353 -0.1039,-1.6714 -0.2029,-2.5033c-0.1124,-0.9435 -0.1811,-1.9062 -0.4327,-2.8153c-0.2558,-0.9241 -0.7649,-1.7762 -1.0668,-2.6911c-0.4302,-1.3074 -1.1254,-2.3482 -2.4278,-2.9025c-0.0889,-0.0377 -0.2029,-0.0872 -0.2449,-0.1635c-0.2935,-0.546 -0.6725,-0.5359 -1.1413,-0.2281c-0.1434,0.0931 -0.3648,0.062 -0.5116,0.1518c-0.608,0.3706 -1.2898,0.6759 -1.7804,1.169c-1.1246,1.1322 -1.6303,2.6408 -2.042,4.1302c-0.2416,0.8714 -0.1862,1.8316 -0.2063,2.7541c-0.0311,1.3544 -0.182,2.7079 0.1467,4.0598c0.1787,0.738 0.2332,1.5128 0.2784,2.2752c0.0596,0.9853 0.0344,1.9766 0.0839,2.9628c0.0512,1.0189 0.1627,2.0354 0.2189,3.0543c0.0587,1.0483 0.088,2.0991 0.1191,3.149c0.0151,0.5325 -0.0025,1.0651 0.0084,1.5976c0.005,0.26 0.0302,0.5199 0.062,0.7791c0.1267,1.0667 0.307,2.1292 0.3808,3.2002c0.1316,1.9246 0.2029,3.8526 0.2935,5.7798c0.0813,1.7166 0.1543,3.4341 0.2281,5.1508c0.0184,0.4571 -0.0386,0.9284 0.0528,1.3695c0.0847,0.4126 0.135,0.7355 -0.2155,0.8621c0.2147,1.143 0.483,2.224 0.6097,3.3218c0.2063,1.7938 0.3027,3.6002 0.483,5.3965c0.0839,0.8395 0.2801,1.6664 0.3858,2.5042c0.1593,1.2763 0.2382,2.5653 0.4352,3.8358c0.2885,1.8567 0.6516,3.7025 0.9829,5.5542l0.1778,0.0126c0.0704,-0.234 0.1652,-0.4638 0.2063,-0.7019c0.0528,-0.3095 0.0268,-0.6332 0.0973,-0.9359c0.3547,-1.5314 0.8436,-3.0392 1.0675,-4.5873c0.3053,-2.1083 0.4152,-4.246 0.6072,-6.3719c0.0487,-0.5442 0.0763,-1.091 0.1401,-1.6345c0.1543,-1.3149 0.3203,-2.629 0.4889,-3.9415c0.1736,-1.3586 0.3673,-2.7138 0.53,-4.0724c0.1015,-0.8486 0.1811,-1.7015 0.234,-2.5544c0.0235,-0.3749 -0.0705,-0.7573 -0.0621,-1.1347c0.0168,-0.7128 0.0747,-1.4248 0.1032,-2.1376c0.0234,-0.5627 -0.0051,-1.1288 0.0486,-1.6873c0.1359,-1.4123 0.3162,-2.8212 0.4562,-4.2334c0.0419,-0.4193 -0.0318,-0.8512 0.0193,-1.268c0.2147,-1.7444 0.4797,-3.4828 0.681,-5.2288c0.1149,-0.9963 0.1501,-2.0027 0.2088,-3.0057zM257.851,195.62189c-0.0511,-1.294 -0.1442,-2.5863 -0.2138,-3.8795c-0.0604,-1.112 -0.1367,-2.2248 -0.1544,-3.3377c-0.0109,-0.6642 0.0789,-1.3275 0.1242,-2.0043c-0.1971,-0.0277 -0.2743,-0.0512 -0.3497,-0.0461c-1.7595,0.1132 -3.5189,0.2281 -5.2783,0.3463c-0.0965,0.0067 -0.2097,0.0252 -0.2818,0.0805c-0.5887,0.4529 -1.1959,0.3497 -1.8609,0.0554c-0.1158,0.3069 -0.2298,0.5619 -0.3095,0.8277c-0.1652,0.5501 -0.3824,1.0978 -0.4512,1.6613c-0.119,0.9837 -0.135,1.98 -0.2105,2.9704c-0.0679,0.8974 -0.239,1.7955 -0.2197,2.6895c0.0235,1.1271 0.1778,2.2534 0.3221,3.3746c0.0184,0.1426 0.3102,0.3472 0.4838,0.3556c0.4487,0.0218 0.9049,-0.0369 1.3553,-0.0889c2.099,-0.2415 4.1964,-0.5057 6.2989,-0.7296c0.5401,-0.0587 0.6113,-0.4243 0.66,-0.8118c0.0603,-0.4839 0.1048,-0.977 0.0855,-1.4634zM268.3925,193.03309c-0.057,-0.6818 -0.1425,-1.3611 -0.1811,-2.0429c-0.0344,-0.6256 0.0033,-1.2563 -0.0386,-1.881c-0.0486,-0.7246 -0.2281,-1.4483 -0.208,-2.1687c0.0336,-1.2504 0.1627,-2.4974 -0.3539,-3.7755c-0.3346,0.1593 -0.613,0.3195 -0.9107,0.4269c-1.9683,0.7078 -3.9365,1.4172 -5.9157,2.0948c-0.4688,0.1611 -0.9854,0.1795 -1.4659,0.3128c-0.1451,0.0403 -0.3422,0.2432 -0.3464,0.3774c-0.0176,0.5694 0.0411,1.1414 0.0445,1.7133c0.0042,0.478 -0.0201,0.9561 -0.0503,1.4332c-0.0235,0.3791 -0.0764,0.7565 -0.1124,1.1347c-0.0134,0.1375 -0.0554,0.2868 -0.0218,0.4134c0.4998,1.8693 0.6063,3.7806 0.5996,5.7018c-0.0017,0.3867 0.1694,0.5225 0.5116,0.4579c0.6281,-0.1191 1.247,-0.2792 1.8768,-0.3866c0.5091,-0.088 1.0449,-0.0612 1.5389,-0.1979c0.7237,-0.2004 1.4164,-0.5157 2.1309,-0.7564c0.7078,-0.239 1.4357,-0.4202 2.1335,-0.6827c0.3212,-0.1207 0.7933,-0.3346 0.8411,-0.5761c0.1015,-0.5082 -0.0268,-1.0642 -0.0721,-1.5984zM268.8118,181.25539c1.8433,-0.6986 3.3503,-2.0001 5.0754,-2.9075c0.9552,-0.5032 1.6697,-1.2311 2.3247,-2.0395c0.2666,-0.3288 0.6013,-0.7506 0.5987,-1.128c-0.0134,-1.8433 -0.1199,-3.6866 -0.2155,-5.5282c-0.0285,-0.5409 -0.1241,-1.0793 -0.1946,-1.6177c-0.1601,-1.2387 -0.3337,-2.4756 -0.4847,-3.7159c-0.1375,-1.1322 -0.2382,-2.2685 -0.3816,-3.3998c-0.0729,-0.5787 -0.2591,-1.1464 -0.2977,-1.7251c-0.0654,-0.9963 -0.0025,-2.0018 -0.0905,-2.9939c-0.1309,-1.4852 -0.3497,-2.9628 -0.5208,-4.4447c-0.0411,-0.3514 0.0134,-0.7229 -0.0721,-1.0608c-0.2063,-0.8278 -0.5242,-1.6303 -0.6927,-2.4639c-0.1762,-0.8722 -0.2298,-1.7687 -0.3372,-2.6551c-0.0964,-0.8 -0.1929,-1.6001 -0.2901,-2.4102c-0.7573,0.4805 -1.4903,0.8361 -2.0857,1.3527c-0.6709,0.5812 -1.3804,1.0307 -2.2064,1.3334c-0.894,0.3288 -1.7578,0.7464 -2.6643,1.0315c-0.9208,0.2902 -1.876,0.473 -2.8195,0.6902c-1.0407,0.239 -2.0865,0.4529 -3.1247,0.6977c-1.3879,0.3279 -2.7616,0.7313 -4.1613,0.9963c-1.2453,0.2357 -2.5142,0.3548 -3.7788,0.4747c-1.0651,0.1015 -2.1402,0.0973 -3.2052,0.1971c-2.1855,0.2038 -4.3667,0.4512 -6.5614,0.1417c-0.2759,-0.0394 -0.5543,-0.0981 -0.8303,-0.0939c-1.5179,0.0201 -3.0366,0.1207 -4.5512,0.0755c-2.4915,-0.0747 -4.9806,-0.2483 -7.4713,-0.3623c-0.9912,-0.0445 -1.9624,-0.0612 -2.9452,-0.343c-0.7716,-0.2214 -1.6932,0.1602 -2.3851,-0.5351c-0.047,-0.0478 -0.1526,-0.0352 -0.2314,-0.0503c-1.4802,-0.2876 -2.9604,-0.5786 -4.4414,-0.8621c-0.2516,-0.0478 -0.5158,-0.0403 -0.764,-0.1023c-0.5115,-0.1258 -1.0139,-0.2877 -1.5246,-0.4218c-0.6097,-0.161 -1.242,-0.2558 -1.8299,-0.4722c-0.8495,-0.3111 -1.6546,-0.7438 -2.505,-1.0541c-0.7623,-0.2776 -1.5715,-0.4277 -2.3372,-0.6995c-0.338,-0.1199 -0.6231,-0.3933 -0.925,-0.608c-0.3229,-0.2297 -0.6365,-0.4721 -1.0407,-0.7732c-0.0738,0.3388 -0.1409,0.5275 -0.1535,0.7196c-0.0763,1.1321 -0.1384,2.2651 -0.2071,3.3981c-0.0655,1.0784 -0.1435,2.1561 -0.1988,3.2354c-0.0512,0.9996 -0.0679,2.0026 -0.1241,3.0023c-0.0419,0.7463 -0.2424,1.4986 0.166,2.2131c0.0411,0.0704 -0.0075,0.1946 -0.0201,0.2935c-0.1509,1.1724 -0.3271,2.3431 -0.4453,3.5197c-0.0663,0.66 -0.0604,1.3309 -0.0478,1.9959c0.0243,1.2429 0.099,2.4857 0.1107,3.7286c0.0067,0.7262 -0.109,1.4541 -0.0939,2.1796c0.0201,0.9535 0.1123,1.9061 0.1778,2.8588c0.088,1.2638 0.249,2.5276 0.2507,3.7923c0.0025,1.2227 0.5283,2.1402 1.3275,2.9729c0.6349,0.6625 1.3687,1.1439 2.214,1.5188c1.0391,0.4587 1.9892,1.1279 3.0367,1.5606c1.1388,0.4713 2.3305,0.8395 3.5272,1.1397c1.9993,0.4998 4.0229,0.9024 6.0323,1.3636c0.935,0.2147 1.8542,0.5041 2.7934,0.702c1.1129,0.2331 2.2375,0.4109 3.3587,0.5979c0.3539,0.0587 0.7212,0.0394 1.0718,0.1082c0.7816,0.1535 1.5497,0.4428 2.3347,0.4906c1.2387,0.0738 2.4865,0.0159 3.7302,-0.0285c0.5283,-0.0202 0.7732,-0.3833 0.7238,-0.8907c-0.0177,-0.1777 0.0041,-0.3614 0.0125,-0.5417c0.0285,-0.608 0.109,-1.2177 0.0797,-1.8215c-0.0755,-1.5397 -0.2658,-3.0752 -0.286,-4.615c-0.0276,-2.0479 -0.0855,-4.0841 -0.4285,-6.1102c-0.1577,-0.9342 -0.1988,-1.8969 -0.203,-2.8471c-0.0042,-0.7933 0.0965,-1.5909 0.2005,-2.38c0.1207,-0.9217 0.2532,-1.845 0.4612,-2.7482c0.1342,-0.5795 0.3288,-1.1783 0.6432,-1.6739c1.0676,-1.6806 2.5386,-2.9637 4.2099,-4.0203c0.1233,-0.0772 0.3028,-0.0671 0.4579,-0.094c1.0114,-0.1761 1.8475,0.2994 2.7331,0.681c1.1858,0.5124 1.9397,1.3644 2.4379,2.5276c0.2055,0.4789 0.5459,0.8982 0.826,1.3452c0.1334,0.2155 0.1828,0.5006 0.2927,0.7614c0.1208,0.2852 0.3682,0.5309 0.4353,0.8227c0.1844,0.8118 0.3044,1.6379 0.4495,2.4589c0.0033,0.0193 0.0033,0.0402 0.005,0.0604c0.0621,1.2571 0.1535,2.5125 0.1786,3.7704c0.0193,0.9133 0.0093,1.8332 -0.0947,2.7381c-0.146,1.2756 -0.4353,2.5327 -0.2181,3.8317c0.0763,0.4537 0.078,0.9317 0.0336,1.3913c-0.0965,1.0063 -0.2692,2.0068 -0.3573,3.0148c-0.0285,0.3179 0.208,0.6634 0.1635,0.9737c-0.1543,1.06 -0.3731,2.1125 -0.5811,3.1649c-0.0671,0.338 0.0126,0.4923 0.3824,0.4772c0.6826,-0.0276 1.3686,0.0009 2.0487,-0.052c2.0966,-0.1643 4.2016,-0.2876 6.2839,-0.5702c0.9686,-0.1309 1.8785,-0.6525 2.8404,-0.8957c1.564,-0.3958 3.071,-0.9175 4.4908,-1.6873c0.1577,-0.0847 0.3363,-0.1317 0.5082,-0.1862c0.7992,-0.2558 1.6127,-0.4738 2.3977,-0.7707zM277.6904,188.77789c-0.0328,-0.9057 -0.0763,-1.8123 -0.1191,-2.7197c-0.0319,-0.7119 -0.0713,-1.4239 -0.104,-2.1368c-0.0403,-0.873 -0.0612,-1.7477 -0.1224,-2.619c-0.0437,-0.6156 -0.1653,-1.2261 -0.203,-1.8416c-0.0361,-0.5795 -0.0075,-1.1624 -0.0075,-1.8157c-0.8009,0.3489 -1.263,0.8898 -1.549,1.528c-0.3304,0.738 -0.8881,1.1724 -1.5682,1.5012c-0.7724,0.3731 -1.5548,0.7245 -2.3339,1.0826c-0.0721,0.0327 -0.166,0.0839 -0.2281,0.0629c-0.7296,-0.2541 -1.2621,0.2189 -1.8458,0.4948c-0.4411,0.2088 -0.6072,0.6332 -0.3665,1.0525c0.2969,0.5191 0.4487,1.0458 0.4202,1.6554c-0.0395,0.837 -0.0252,1.679 0.0067,2.5176c0.0276,0.7296 0.1241,1.4567 0.1677,2.1863c0.0788,1.3066 0.1358,2.614 0.2163,3.9205c0.0126,0.203 0.1032,0.4009 0.1762,0.6735c1.3392,-0.7196 2.8379,-0.9141 3.9256,-1.9675c0.0989,-0.0947 0.223,-0.1777 0.3513,-0.2272c1.4349,-0.5611 2.2526,-1.7754 3.1055,-2.9486c0.0729,-0.0998 0.083,-0.265 0.078,-0.3992zM299.6154,174.82649c-0.0059,-1.1698 -0.0344,-2.3397 -0.0562,-3.5088c0,-0.2482 -0.0017,-0.4956 -0.0026,-0.743c-0.0025,-0.8504 0.1351,-1.7351 -0.0545,-2.5435c-0.4176,-1.7846 -0.9644,-3.5432 -1.543,-5.2842c-0.0814,-0.2449 -0.2181,-0.4898 -0.3824,-0.7137c-0.3346,-0.842 -0.8403,-1.6135 -1.3964,-2.3792c-0.1467,-0.2004 -0.3295,-0.3622 -0.5333,-0.4729c-0.1359,-0.156 -0.2717,-0.3137 -0.4193,-0.4563c-0.047,-0.0452 -0.0965,-0.0779 -0.1451,-0.1148c-0.4663,-0.525 -1.0567,-0.9074 -1.6915,-1.2831c-1.481,-0.8764 -2.8723,-1.9004 -4.6208,-2.2081c-0.7179,-0.1275 -1.4274,-0.3489 -2.1503,-0.4118c-1.0709,-0.0948 -2.1519,-0.0646 -3.2262,-0.1275c-1.5481,-0.0922 -2.9687,0.3581 -4.3524,0.9703c-0.7036,0.312 -1.3871,0.6701 -1.9029,0.9216c-0.1098,0.5963 -0.2021,1.0777 -0.2851,1.5607c-0.0226,0.1342 -0.0302,0.2734 -0.021,0.4093c0.1065,1.6588 0.1854,3.3201 0.3346,4.9755c0.1384,1.5255 0.3548,3.0442 0.5326,4.5663c0.0495,0.416 0.0771,0.8353 0.1316,1.2513c0.0948,0.7279 0.2357,1.4516 0.2994,2.1829c0.1032,1.185 0.1568,2.3758 0.2357,3.5633c0.1132,1.7234 0.2323,3.4459 0.3446,5.1693c0.0395,0.608 0.0646,1.2169 0.099,1.8249c0.0822,1.4273 0.1627,2.8555 0.2508,4.2828c0.0519,0.8479 0.0989,1.6974 0.1903,2.5419c0.0185,0.1686 0.1937,0.3941 0.3514,0.4587c0.4344,0.1795 0.9409,0.2114 1.3426,0.4386c0.9527,0.5376 1.8936,1.1095 2.7784,1.7527c1.0231,0.7439 1.9842,1.5222 2.583,2.7449c0.7606,1.5531 1.2629,3.1859 1.7913,4.8103c0.2775,0.8554 0.3254,1.7896 0.4411,2.6928c0.0922,0.733 0.1644,1.4727 0.1811,2.2098c0.0126,0.5242 -0.1375,1.0525 -0.1174,1.575c0.0235,0.6247 0.2021,1.2436 0.2231,1.8684c0.0386,1.128 0.0109,2.2593 0.0109,3.5851c0.5896,-1.0424 1.1472,-1.9573 1.6353,-2.9092c0.525,-1.0231 0.9854,-2.0806 1.4718,-3.1238c0.4093,-0.8764 0.8344,-1.7452 1.216,-2.6333c0.2742,-0.6374 0.4872,-1.3015 0.7288,-1.9523c0.3522,-0.9493 0.7581,-1.8827 1.0474,-2.8514c0.3866,-1.2931 0.665,-2.6181 1.0257,-3.9205c0.4444,-1.6093 0.9979,-3.191 1.3745,-4.8154c0.5845,-2.5176 1.0885,-5.0552 1.5657,-7.5954c0.0914,-0.4864 0.1341,-0.9821 0.1652,-1.4794c0.0629,-0.1274 0.1132,-0.265 0.1342,-0.4251c0.0603,-0.473 0.0905,-0.9024 0.0738,-1.3536c0,-0.0117 0.0016,-0.0243 0.0016,-0.0352c0.1778,-0.9913 0.3447,-1.9716 0.3388,-3.0149z" data-paper-data="{&quot;origPos&quot;:null}" fill="#30419a"/><path d="M229.8661,152.70859c0.0067,-0.405 0.1585,-0.7983 0.6944,-0.8822c0.5283,-0.0838 0.8202,0.2147 0.9669,0.6877c0.0528,0.1711 0.1007,0.3472 0.1266,0.5233c0.078,0.5258 -0.2926,1.029 -0.7916,1.0894c-0.4562,0.0553 -0.863,-0.2843 -0.9451,-0.8001c-0.0286,-0.1769 -0.0302,-0.3581 -0.0512,-0.618z" data-paper-data="{&quot;origPos&quot;:null}" fill="#30419a"/><path d="M271.5181,148.61359c-0.0034,0.6978 -0.3531,1.1162 -0.9183,1.0978c-0.53,-0.0185 -0.8605,-0.4378 -0.8638,-1.0969c-0.0034,-0.6843 0.3489,-1.1338 0.8915,-1.1364c0.5425,-0.0025 0.8931,0.4445 0.8906,1.1355z" data-paper-data="{&quot;origPos&quot;:null}" fill="#30419a"/><path d="M213.4861,149.26109c-0.0025,0.6767 -0.317,1.0826 -0.8495,1.0977c-0.5619,0.0151 -0.9032,-0.4017 -0.9057,-1.1036c-0.0017,-0.6952 0.3446,-1.1456 0.8813,-1.1439c0.5384,0.0009 0.8781,0.4462 0.8739,1.1498z" data-paper-data="{&quot;origPos&quot;:null}" fill="#30419a"/><path d="M254.5904,154.08989c-0.4989,-0.0311 -0.8419,-0.4613 -0.8034,-1.0081c0.0344,-0.4948 0.4504,-0.8948 0.9016,-0.8688c0.4729,0.0269 0.8855,0.5082 0.8562,0.9971c-0.0294,0.5116 -0.4621,0.91 -0.9544,0.8798z" data-paper-data="{&quot;origPos&quot;:null}" fill="#30419a"/></g><g data-paper-data="{&quot;origPos&quot;:null}"><path d="M231.86,116.46499l1.6571,-1.8475l5.192,-1.3435l6.8674,0.9242l5.9459,3.4626l2.4572,4.1781l2.3993,5.0384l-0.6374,4.5345l-1.372,3.0224l-4.1872,3.5272l-5.6943,1.0911l-5.5282,-0.4202l-4.1026,-2.4345l-4.7961,-4.8707l-2.1552,-6.969v-1.8475l0.9266,-4.1705l3.0275,-1.8751" data-paper-data="{&quot;origPos&quot;:null}" fill="#ef463c"/><g data-paper-data="{&quot;origPos&quot;:null}"><path d="M249.8468,121.85899l1.6957,5.1642l-0.4394,4.0934c0,0 -4.2082,2.0781 -4.3961,1.9523c-0.1887,-0.1258 -6.1555,0 -6.1555,0l-5.7781,-4.0304l-1.1934,-5.5417l1.4441,-3.2748l3.7059,-2.0781l7.0344,1.3854z" data-paper-data="{&quot;origPos&quot;:null}" fill="#ffffff"/><g data-paper-data="{&quot;origPos&quot;:null}" fill="#30419a"><path d="M245.5413,140.13679c-0.9568,0 -1.9162,0.0344 -2.8714,-0.0126c-0.6416,-0.0318 -1.2739,-0.2004 -1.9155,-0.2683c-0.5233,-0.0562 -1.0667,0.0134 -1.574,-0.0965c-0.4814,-0.1039 -0.9603,-0.2507 -1.1808,-0.8646c-0.0914,-0.2516 -0.634,-0.3312 -0.9619,-0.5082c-1.6354,-0.8831 -3.1793,-1.9028 -4.5127,-3.2077c-1.0055,-0.9846 -2.0026,-1.9834 -2.9343,-3.0367c-0.3682,-0.4159 -0.5745,-0.987 -0.8093,-1.5078c-0.3665,-0.8143 -0.748,-1.6286 -1.0256,-2.4748c-0.3757,-1.1481 -0.8143,-2.3104 -0.9334,-3.4954c-0.0973,-0.972 0.0369,-2.0035 0.3757,-2.9847c0.4738,-1.3686 1.1053,-2.64 1.9607,-3.8023c0.8453,-1.1489 1.7292,-2.2643 2.8731,-3.1364c0.4998,-0.3808 0.9829,-0.8034 1.5347,-1.0894c1.6118,-0.8336 3.2975,-1.4089 5.1399,-1.5506c1.1951,-0.0923 2.3834,-0.151 3.5617,0.0042c1.4005,0.1845 2.7112,0.7212 4.0488,1.1707c1.2664,0.4252 2.3683,1.1195 3.4342,1.8458c0.9728,0.6625 1.7729,1.58 2.6442,2.3909c0.3354,0.3137 0.7237,0.5988 0.9694,0.9753c0.4537,0.6969 0.8496,1.4366 1.216,2.1847c0.5879,1.2017 1.0995,2.4412 1.7025,3.6337c0.6683,1.3234 0.8889,2.7482 0.9157,4.1856c0.0344,1.8123 -0.6004,3.4568 -1.4843,5.0368c-0.9318,1.6655 -2.2518,2.9762 -3.6791,4.1562c-1.164,0.9627 -2.5888,1.5297 -4.0765,1.8819c-0.5561,0.1308 -1.0978,0.3203 -1.6513,0.4679c-0.2474,0.0671 -0.5057,0.0965 -0.759,0.1418c-0.0025,-0.0143 -0.005,-0.0269 -0.0075,-0.0395zM228.5307,123.92289c0.0603,0.0117 0.1207,0.0234 0.1803,0.0352c-0.104,1.8684 0.462,3.57 1.1858,5.2623c0.8889,2.0756 2.5117,3.5424 4.0438,5.0678c1.2462,1.2387 2.7482,2.1704 4.2711,3.0703c1.0206,0.6029 2.0396,0.9619 3.2086,0.9459c1.3058,-0.0176 2.6115,-0.0184 3.9172,-0.036c0.6433,-0.0084 1.336,0.1073 1.9205,-0.0898c1.1615,-0.3916 2.3993,-0.7774 3.357,-1.4986c1.4324,-1.0793 2.6643,-2.4303 3.9449,-3.7025c0.2356,-0.234 0.3103,-0.6374 0.4361,-0.9711c0.0989,-0.26 0.1191,-0.5569 0.2499,-0.7959c0.5032,-0.9183 0.7019,-1.8886 0.613,-2.9285c-0.1216,-1.413 -0.265,-2.8186 -0.977,-4.0916c-0.3757,-0.6709 -0.7967,-1.3267 -1.0776,-2.037c-0.6592,-1.6639 -1.8031,-2.947 -3.0836,-4.1277c-1.5431,-1.4232 -3.2774,-2.5436 -5.2993,-3.1566c-1.0433,-0.3162 -2.1016,-0.7615 -3.165,-0.7992c-1.6001,-0.0571 -3.2136,0.1736 -4.8179,0.3136c-1.907,0.1677 -3.4761,1.1078 -4.8774,2.3255c-0.6634,0.577 -1.2227,1.2823 -1.7787,1.9716c-0.5745,0.7112 -1.2429,1.4081 -1.5842,2.2308c-0.3883,0.935 -0.4587,2.0018 -0.6675,3.0115z" data-paper-data="{&quot;origPos&quot;:null}"/><path d="M246.494,134.45089c-0.9351,0.1292 -1.8676,0.3237 -2.8069,0.3648c-0.6591,0.0286 -1.3745,-0.0318 -1.9842,-0.265c-1.3502,-0.5174 -2.6618,-1.1455 -3.9675,-1.772c-1.3787,-0.6616 -2.5402,-1.6764 -3.274,-2.9704c-0.6809,-1.2017 -1.3267,-2.468 -1.5481,-3.908c-0.2004,-1.3007 -0.2843,-2.5016 0.3103,-3.7553c0.4176,-0.8806 0.608,-1.8911 1.4357,-2.4941c0.743,-0.5426 1.5725,-0.9661 2.3649,-1.4416c0.0336,-0.0201 0.0797,-0.0193 0.1133,-0.0394c0.9451,-0.5736 1.9783,-0.4956 3.024,-0.4638c1.159,0.0344 2.3214,-0.0453 3.4828,-0.0444c0.1971,0 0.3909,0.1644 0.5904,0.2415c1.1347,0.4403 2.266,0.8881 3.4065,1.3108c0.733,0.2709 1.2647,0.764 1.8207,1.3066c0.9686,0.9443 1.6789,2.0571 2.141,3.2672c0.4621,1.206 1.0508,2.4287 0.9217,3.7965c-0.0839,0.9015 -0.0571,1.8332 -0.2894,2.6945c-0.301,1.1154 -1.1967,1.8852 -2.0747,2.562c-0.7439,0.5736 -1.6161,0.9862 -2.4505,1.434c-0.3598,0.1929 -0.769,0.2927 -1.1556,0.4344c-0.0201,-0.0872 -0.0403,-0.1727 -0.0604,-0.2583zM250.6477,128.65349c-0.0688,-2.2114 -0.6499,-3.8048 -1.5154,-5.3101c-0.2121,-0.3699 -0.353,-0.8194 -0.6533,-1.0902c-0.4914,-0.4437 -1.0642,-0.8102 -1.642,-1.1397c-1.9364,-1.107 -4.1462,-1.3125 -6.2494,-1.876c-1.4072,-0.3774 -2.6585,0.0813 -3.8837,0.5971c-0.483,0.2038 -0.8982,0.691 -1.2127,1.1413c-0.405,0.5795 -0.6792,1.2521 -1.0063,1.8861c-0.1074,0.2088 -0.3111,0.4302 -0.2935,0.6298c0.0679,0.7581 0.2205,1.5079 0.3178,2.2635c0.1602,1.2503 0.941,2.2014 1.5909,3.1909c0.4528,0.6902 1.0575,1.3527 1.7435,1.8005c1.2143,0.7934 2.401,1.71 3.9558,1.809c0.8084,0.052 1.6219,0.317 2.4152,0.2541c1.185,-0.0948 2.4211,-0.1334 3.4535,-0.8948c0.5258,-0.3883 1.0835,-0.7313 1.5934,-1.1381c0.8227,-0.6549 1.3912,-1.465 1.3862,-2.1234z" data-paper-data="{&quot;origPos&quot;:null}"/></g></g></g></g></g></svg>