<svg version="1.1" xmlns="http://www.w3.org/2000/svg" xmlns:xlink="http://www.w3.org/1999/xlink" width="86.0207" height="277.04697" viewBox="0,0,86.0207,277.04697"><g transform="translate(-196.98965,-136.98965)"><g data-paper-data="{&quot;isPaintingLayer&quot;:true}" stroke-miterlimit="10" stroke-dasharray="" stroke-dashoffset="0" style="mix-blend-mode: normal"><path d="M209.48335,369.0558c0.48604,-5.95994 -2.38789,-110.91295 -1.86502,-117.97297c1.51278,-20.42631 6.34703,-41.74843 32.83025,-42.50735c19.85777,-0.56906 26.43289,19.02319 27.05399,40.39539c0.49352,16.98231 0.22774,133.08847 -3.12058,143.09657c-20.37745,51.32385 -56.22127,-3.41353 -54.89864,-23.01164z" data-paper-data="{&quot;index&quot;:null}" fill="#ffab19" fill-rule="evenodd" stroke="#001026" stroke-width="1.2" stroke-linecap="round" stroke-linejoin="round"/><path d="M197.58966,180.00001c0,-23.42259 18.98776,-42.41035 42.41035,-42.41035c23.42259,0 42.41035,18.98776 42.41035,42.41035c0,23.42259 -18.98776,42.41035 -42.41035,42.41035c-23.42259,0 -42.41035,-18.98776 -42.41035,-42.41035z" data-paper-data="{&quot;index&quot;:null}" fill="#ffab19" fill-rule="nonzero" stroke="#001026" stroke-width="1.2" stroke-linecap="butt" stroke-linejoin="miter"/><g data-paper-data="{&quot;index&quot;:null}" fill-rule="evenodd"><path d="M246.65353,152.1934c0.28717,-0.19147 0.76589,-0.09577 0.86159,0.28717l2.48908,10.24357c0,0 6.127,4.49951 7.94596,7.65879c3.0635,5.26541 3.15927,9.57345 3.15927,9.57345c0,0 6.79712,2.01043 7.94596,7.46731c1.14884,5.45688 -3.0635,15.79615 -21.06155,19.33837c-17.99805,3.54215 -32.45396,-1.34031 -39.25115,-12.254c-6.79712,-10.91369 3.92509,-23.93365 3.35067,-23.16776l-2.01043,-17.13646c-0.09577,-0.38295 0.38295,-0.67012 0.76589,-0.47865l11.58388,7.56301c0,0 4.30804,-1.62749 8.80755,-1.81896c2.68055,-0.19147 4.97823,0 7.18007,0.38295z" fill="#ffab19" stroke="#001026" stroke-width="1.2" stroke-linecap="butt" stroke-linejoin="miter"/><path d="M260.82219,180.33932c0,0 6.60565,1.72319 7.75449,7.18007c1.14884,5.45688 -3.44645,15.3175 -21.25303,18.76395c-23.16776,4.78669 -34.17722,-8.99903 -27.76297,-19.14689c6.41417,-10.24357 17.42371,-1.53179 25.46537,-2.10613c6.89289,-0.47865 7.65879,-6.50995 15.79615,-4.69099z" fill="#ffffff" stroke="none" stroke-width="1" stroke-linecap="butt" stroke-linejoin="miter"/><path d="M230.66585,190.58295c0,-0.38295 0.38295,-0.67012 0.76589,-0.57442c1.81896,0.67012 6.98859,2.20191 12.73265,2.58485c5.16963,0.28717 8.23313,0 9.66915,-0.28717c0.47865,-0.09577 0.86159,0.38295 0.67012,0.86159c-0.86159,2.58485 -4.49951,9.76492 -14.55161,9.1905c-8.71185,-0.95737 -9.57345,-7.08437 -9.28627,-11.77535z" fill="#ffffff" stroke="#001026" stroke-width="1.2" stroke-linecap="round" stroke-linejoin="round"/><path d="M278.43737,181.39246c-4.49951,3.63792 -11.39241,3.73362 -11.39241,3.73362" fill="none" stroke="#001026" stroke-width="1.2" stroke-linecap="round" stroke-linejoin="round"/><path d="M277.19284,192.11467c-6.0313,0.47865 -9.76492,-1.34031 -9.76492,-1.34031" fill="none" stroke="#001026" stroke-width="1.2" stroke-linecap="round" stroke-linejoin="round"/><path d="M244.64311,182.54123c2.01043,0 4.11657,0.19147 4.21234,0.86159c0.09577,1.34031 -1.34031,4.02087 -2.87203,4.11657c-1.72319,0.19147 -5.74405,-2.20191 -5.74405,-3.73362c-0.09577,-1.14884 2.48908,-1.24454 4.40381,-1.24454z" fill="#001026" stroke="#001026" stroke-width="1.2" stroke-linecap="round" stroke-linejoin="round"/><path d="M201.56255,181.10522c0,0 8.23313,2.68055 11.58388,5.64835" fill="none" stroke="#001026" stroke-width="1.2" stroke-linecap="round" stroke-linejoin="round"/><path d="M213.43368,190.10424c-4.11657,1.62749 -11.20093,0.57442 -11.20093,0.57442" fill="none" stroke="#001026" stroke-width="1.2" stroke-linecap="round" stroke-linejoin="round"/><g><path d="M255.93974,171.34029c2.77633,4.30804 2.87203,9.1905 0.19147,10.91369c-2.68055,1.72319 -7.08437,-0.28717 -9.95639,-4.59529c-2.77633,-4.30804 -2.87203,-9.1905 -0.19147,-10.91369c2.68055,-1.81896 7.18007,0.28717 9.95639,4.59529z" fill="#ffffff" stroke="#001026" stroke-width="1.2" stroke-linecap="round" stroke-linejoin="round"/><path d="M255.55687,176.79718c0,1.05307 -0.76589,1.91466 -1.72319,1.91466c-0.95737,0 -1.72319,-0.86159 -1.72319,-1.91466c0,-1.05307 0.76589,-1.91466 1.72319,-1.91466c0.95737,0 1.72319,0.86159 1.72319,1.91466" fill="#001026" stroke="none" stroke-width="1" stroke-linecap="butt" stroke-linejoin="miter"/></g><g><path d="M232.19764,174.02085c2.87203,4.21234 2.68055,9.38197 0.09577,11.20093c-3.15927,1.81896 -7.37154,0.47865 -10.24357,-3.73362c-2.96773,-4.21234 -3.15927,-9.66915 -0.19147,-11.77535c2.96773,-2.20191 7.46731,0.09577 10.33934,4.30804z" fill="#ffffff" stroke="#001026" stroke-width="1.2" stroke-linecap="round" stroke-linejoin="round"/><path d="M231.62322,179.57349c0,1.05307 -0.76589,1.91466 -1.72319,1.91466c-0.95737,0 -1.72319,-0.86159 -1.72319,-1.91466c0,-1.05307 0.76589,-1.91466 1.72319,-1.91466c0.95737,0.09577 1.72319,0.86159 1.72319,1.91466" fill="#001026" stroke="none" stroke-width="1" stroke-linecap="butt" stroke-linejoin="miter"/></g></g></g></g></svg>