<svg version="1.1" xmlns="http://www.w3.org/2000/svg" xmlns:xlink="http://www.w3.org/1999/xlink" width="99.84079" height="95.17898" viewBox="0,0,99.84079,95.17898"><g transform="translate(-190.17999,-156.87208)"><g data-paper-data="{&quot;isPaintingLayer&quot;:true}" stroke-miterlimit="10" stroke-dasharray="" stroke-dashoffset="0" style="mix-blend-mode: normal"><g fill-rule="evenodd"><path d="M260.77922,219.67208c0.4,-0.8 1.3,-2.5 4.7,-0.1c3.4,2.4 4.1,9.3 4.1,10.1c0.1,3.1 0.1,6.9 -1.3,11.1c-4,12.2 -17.1,12.3 -19.2,8.4c-2.1,-3.8 6,-5.5 10.9,-11c2.2,-2.4 3,-5.3 3.5,-7.7c0.6,-3.4 -3.2,-9.9 -2.7,-10.8z" fill="#ffab19" stroke="#001026" stroke-width="1.2" stroke-linecap="round" stroke-linejoin="round"/><path d="M252.67922,244.47208c2.7,-1.6 6.5,-4.7 6.5,-4.7c0,0 -0.9,3.7 0.8,5.8c1.3,1.7 3.5,1.3 4.2,1.1c-1.3,1.3 -3.1,2.9 -6.6,3.9c-3.5,1 -7.7,0 -8.3,-2c-0.4,-2 1.1,-2.5 3.4,-4.1z" fill="#ffffff" stroke="none" stroke-width="1" stroke-linecap="butt" stroke-linejoin="miter"/></g><path d="M271.17922,214.67208c1.2,1.8 5.6,8 8.1,15.9l0.1,0.4c0.1,0.4 0.6,0.6 1,0.4c2.4,-1.7 7.2,-4.8 8.9,0.7c1.7,5.3 -12.4,15.2 -16.1,11c-1.4,-1.9 -0.7,-3.6 -0.3,-4.5c0.2,-0.5 0.2,-1 0.1,-1.5c-0.4,-1.2 -1.2,-3.4 -2.1,-5.1c-2.2,-4.3 -3.1,-5.3 -4.6,-7.3c-1.5,-2 -5.2,-6.6 -2,-10.3c2.7,-3.2 5.7,-1.4 6.9,0.3z" fill="#ffab19" fill-rule="evenodd" stroke="#001026" stroke-width="1.2" stroke-linecap="round" stroke-linejoin="round"/><path d="M250.37922,198.77208c0.4,-0.5 7.6,-6.6 5.8,-8.6c-2.1,-2.4 -6.2,-5.7 -2.9,-9.3c3.3,-3.6 8.9,3.2 10.4,6.1c3.1,6.9 -2.8,12.5 -4.4,13.7c-1.6,1.2 -4.3,3.3 -6.9,3.3c-2.8,-0.1 -3.5,-3.5 -2,-5.2z" fill="#ffab19" fill-rule="evenodd" stroke="#001026" stroke-width="1.2" stroke-linecap="round" stroke-linejoin="round"/><g fill-rule="evenodd"><path d="M273.67922,198.67208c1.9,-2.1 5.8,-6.7 5.8,-6.7c0,0 -2.5,-14.3 4.7,-14.3c4.3,0 5.3,7.2 4.4,16.9c-0.1,0.6 -0.3,1.2 -0.7,1.7c-1.9,2.2 -7.5,8.5 -11.4,12.5c-5.8,5.9 -9.6,10.8 -9.6,10.8c-8.3,8.5 -11.8,1.6 -16.6,-1.1c-4.1,-2.5 -3.3,-3.6 -2.1,-9.6c0.5,-3.4 0.8,-5.4 0.7,-7.6c-0.1,-3.3 4.7,-2.7 7.2,-1.8c0,0 3.7,1.4 5.6,2.7c2.3,1.6 3.8,2.8 4.7,4z" fill="#ffab19" stroke="#001026" stroke-width="1.2" stroke-linecap="round" stroke-linejoin="round"/><path d="M266.27922,207.07208c0,0 -1.2,1.5 -2.7,3.1c-1.8,2 -3.3,4 -6.4,2c-2.4,-1.8 -5.6,-3.5 -2.7,-8c2.7,-4.3 5.2,-2.4 5.2,-2.4c4.5,2.2 6.6,5.3 6.6,5.3z" fill="#ffffff" stroke="none" stroke-width="1" stroke-linecap="butt" stroke-linejoin="miter"/></g><path d="M258.07922,222.17208c2.8,-2.2 6.3,-5.6 9.2,-1.3c3.3,5.9 -6.7,10.8 -10.2,11.8c-3.1,0.9 -5.1,-1.7 -6.8,-3.9c-3.1,-4.3 -5.9,-7.9 -4.4,-11.9c1.8,-5 5.8,-1.4 7.6,1.1c1.1,1.5 2.3,3 3,4.1c0.5,0.3 1.1,0.4 1.6,0.1z" fill="#ffab19" fill-rule="evenodd" stroke="#001026" stroke-width="1.2" stroke-linecap="round" stroke-linejoin="round"/><g fill-rule="evenodd"><path d="M190.67922,190.67208c-0.2,-0.3 -0.1,-0.8 0.3,-0.9l10.7,-2.6c0,0 4.7,-6.4 8,-8.3c5.5,-3.2 10,-3.3 10,-3.3c0,0 2.1,-7.1 7.8,-8.3c5.7,-1.2 16.5,3.2 20.2,22c3.7,18.8 -1.4,33.9 -12.8,41c-11.4,7.1 -25,-4.1 -24.2,-3.5l-17.9,2.1c-0.4,0.1 -0.7,-0.4 -0.5,-0.8l7.9,-12.1c0,0 -1.7,-4.5 -1.9,-9.2c-0.2,-2.8 0,-5.2 0.4,-7.5z" fill="#ffab19" stroke="#001026" stroke-width="1.2" stroke-linecap="butt" stroke-linejoin="miter"/><path d="M220.07922,175.87208c0,0 1.8,-6.9 7.5,-8.1c5.7,-1.2 16,3.6 19.6,22.2c5,24.2 -9.4,35.7 -20,29c-10.7,-6.7 -1.6,-18.2 -2.2,-26.6c-0.5,-7.2 -6.8,-8 -4.9,-16.5z" fill="#ffffff" stroke="none" stroke-width="1" stroke-linecap="butt" stroke-linejoin="miter"/><path d="M230.17922,206.57208c0.7,-1.9 2.3,-7.3 2.7,-13.3c0.3,-5.4 0,-8.6 -0.3,-10.1c-0.04648,-0.23238 0.90736,4.5177 0.34915,10.02969c-0.64288,6.348 -2.80267,13.58441 -2.74915,13.37031z" fill="#ffffff" stroke="#001026" stroke-width="1.2" stroke-linecap="round" stroke-linejoin="round"/><path d="M221.17922,157.47208c3.8,4.7 3.9,11.9 3.9,11.9" fill="none" stroke="#001026" stroke-width="1.2" stroke-linecap="round" stroke-linejoin="round"/><path d="M232.37922,158.77208c0.5,6.3 -1.4,10.2 -1.4,10.2" fill="none" stroke="#001026" stroke-width="1.2" stroke-linecap="round" stroke-linejoin="round"/><path d="M222.37922,192.77208c0,-2.1 0.2,-4.3 0.9,-4.4c1.4,-0.1 4.2,1.4 4.3,3c0.2,1.8 -2.3,6 -3.9,6c-1.2,0.1 -1.3,-2.6 -1.3,-4.6z" fill="#001026" stroke="#001026" stroke-width="1.2" stroke-linecap="round" stroke-linejoin="round"/><path d="M220.87922,237.77208c0,0 2.8,-8.6 5.9,-12.1" fill="none" stroke="#001026" stroke-width="1.2" stroke-linecap="round" stroke-linejoin="round"/><path d="M230.27922,225.37208c1.7,4.3 0.6,11.7 0.6,11.7" fill="none" stroke="#001026" stroke-width="1.2" stroke-linecap="round" stroke-linejoin="round"/><g fill="#ffffff" stroke="#001026" stroke-width="1.2" stroke-linecap="round" stroke-linejoin="round"><path d="M210.67922,180.97208c4.5,-2.9 9.6,-3 11.4,-0.2c1.8,2.8 -0.3,7.4 -4.8,10.4c-4.5,2.9 -9.6,3 -11.4,0.2c-1.9,-2.8 0.3,-7.5 4.8,-10.4z"/></g><g fill="#ffffff" stroke="#001026" stroke-width="1.2" stroke-linecap="round" stroke-linejoin="round"><path d="M213.47922,205.77208c4.4,-3 9.8,-2.8 11.7,-0.1c1.9,3.3 0.5,7.7 -3.9,10.7c-4.4,3.1 -10.1,3.3 -12.3,0.2c-2.3,-3.1 0.1,-7.8 4.5,-10.8z"/></g></g><path d="M222.39239,213.20099c-0.35355,0.35355 -0.70711,0 -0.70711,0l0.0083,-0.06635c-1.07631,-0.39586 -2.62794,-1.22652 -4.09161,-2.20689c-1.01709,1.48947 -2.02423,2.99998 -2.57431,4.69773c0,0 -0.15811,0.47434 -0.63246,0.31623c-0.47434,-0.15811 -0.31623,-0.63246 -0.31623,-0.63246c0.59178,-1.73635 1.71407,-3.31792 2.7943,-4.88775c-1.23915,-0.89362 -2.33878,-1.86492 -2.92312,-2.72372c0,0 -0.27735,-0.41603 0.13868,-0.69338c0.41603,-0.27735 0.69338,0.13868 0.69338,0.13868c0.69566,1.07149 1.71069,1.70285 2.78176,2.25778c0.73924,-1.1223 1.39371,-2.25443 1.75487,-3.44851l0.30793,-0.38258c0,0 0.35355,-0.35355 0.70711,0c0.35355,0.35355 0,0.70711 0,0.70711l-0.06635,-0.0083c-0.43978,1.24056 -1.14104,2.39413 -1.90257,3.53548c0.59046,0.29415 1.17823,0.59232 1.72058,0.9535c0.64717,0.43099 1.20372,1.22864 1.92428,1.42838l0.38258,0.30793c0,0 0.35355,0.35355 0,0.70711z" fill="#001026" fill-rule="nonzero" stroke="none" stroke-width="0.5" stroke-linecap="butt" stroke-linejoin="miter"/><path d="M217.39686,188.59244c-0.44721,0.22361 -0.67082,-0.22361 -0.67082,-0.22361l0.10196,-0.12354c-1.03401,-0.36655 -2.05872,-1.13923 -3.01733,-2.01239c-0.7927,1.29002 -1.63097,2.50282 -2.72276,3.26404c0,0 -0.41603,0.27735 -0.69338,-0.13868c-0.27735,-0.41603 0.13868,-0.69338 0.13868,-0.69338c1.00183,-0.62441 1.83169,-1.78716 2.61643,-3.05721c-0.7021,-0.68605 -1.35842,-1.38882 -1.94408,-1.97449c0,0 -0.35355,-0.35355 0,-0.70711c0.35355,-0.35355 0.70711,0 0.70711,0c0.50642,0.50642 1.10641,1.16584 1.75555,1.82254c0.77506,-1.30339 1.53307,-2.61829 2.40293,-3.50678l0.09348,-0.24433c0,0 0.22361,-0.44721 0.67082,-0.22361c0.44721,0.22361 0.22361,0.67082 0.22361,0.67082l-0.2808,0.50422c-0.9439,0.91715 -1.70027,2.17644 -2.45719,3.43929c0.91442,0.86248 1.89202,1.62673 2.82316,1.90836l0.47624,0.62501c0,0 0.22361,0.44721 -0.22361,0.67082z" fill="#001026" fill-rule="nonzero" stroke="none" stroke-width="0.5" stroke-linecap="butt" stroke-linejoin="miter"/></g></g></svg>