<svg version="1.1" xmlns="http://www.w3.org/2000/svg" xmlns:xlink="http://www.w3.org/1999/xlink" width="126.71738" height="85.11125" viewBox="0,0,126.71738,85.11125"><g transform="translate(-176.64131,-137.44438)"><g data-paper-data="{&quot;isPaintingLayer&quot;:true}" fill="#ffab19" fill-rule="nonzero" stroke="none" stroke-width="0.5" stroke-linecap="butt" stroke-linejoin="miter" stroke-miterlimit="10" stroke-dasharray="" stroke-dashoffset="0" style="mix-blend-mode: normal"><path d="M181.56592,215.92007c-0.16682,0.73825 -0.70276,1.92417 -2.42461,1.92417c-2.5,0 -2.5,-2.5 -2.5,-2.5l0.01931,-0.51009c0.40785,-3.21811 1.47174,-6.12977 2.01323,-9.29194c0.21436,-1.25178 -0.24941,-2.68487 0.37343,-3.79166c0.60906,-1.0823 2.84471,-0.97463 3.00203,-2.20653c0.12502,-0.97895 -2.30804,-0.58715 -2.52222,-1.55053c-0.31452,-1.41473 2.75608,-7.8704 3.29147,-8.7738c0.21925,-0.36996 1.3838,-0.53399 1.02943,-0.77763c-1.42926,-0.98267 -4.34181,-0.20169 -4.86091,-1.85666c-0.61845,-1.9717 1.23362,-4.03959 2.49908,-5.6732c2.11919,-2.73572 7.72531,-5.92614 10.90328,-7.51479c0.99635,-0.49807 2.76945,-0.15144 3.11479,-1.21047c0.33478,-1.02662 -2.07651,-1.60008 -1.85373,-2.65668c0.53855,-2.55428 5.4336,-6.49342 7.22953,-8.10487c1.29781,-1.16451 2.32034,-2.74657 3.89868,-3.48767c0.07161,-0.03362 0.14428,-0.06222 0.21789,-0.08632l-0.02613,-0.04292l1.04235,-0.63448c-0.04955,-1.43035 -0.13142,-2.86689 0.31993,-4.20117c0.40894,-1.20892 1.69161,-1.9191 2.6412,-2.77175c2.86615,-2.57355 5.13532,-4.07867 7.75574,-5.22353c0.01565,-0.02961 0.03188,-0.05887 0.04867,-0.08776l-0.18816,-0.28601l4.14775,-2.72879c0.4001,-0.27188 0.88318,-0.43075 1.40337,-0.43075c0.70722,0 1.34585,0.29366 1.80061,0.76569c4.04136,-1.09878 8.0735,-2.22842 12.11269,-3.33627c1.73923,-0.47702 3.42467,-1.56446 5.22196,-1.41537c0.1371,0.01137 0.27312,0.0275 0.40815,0.04795l0.00339,-0.05769l3.38271,0.19898c0.60881,0.03107 1.1601,0.27993 1.57752,0.67021c4.05081,-0.25423 8.0545,-0.46717 12.13759,-0.36082c1.89225,0.04928 3.86509,-0.35984 5.67537,0.19324c6.39906,1.95505 3.87524,7.0586 1.1381,10.6138c-0.16543,0.21488 -0.32347,0.4377 -0.47781,0.66454c0.14003,-0.03932 0.28066,-0.07667 0.42197,-0.11175c1.55037,-0.38492 3.15292,-0.80302 4.74497,-0.67195c2.1152,0.17413 4.87588,-0.11138 6.17032,1.57052c1.07769,1.40027 -0.09056,3.6703 -0.94759,5.21551c-1.30862,2.35943 -6.26726,5.45267 -8.43342,6.94088c-0.02626,0.01804 -0.05243,0.03624 -0.07853,0.05459c2.3139,0.00256 5.27074,0.06171 5.96152,0.35608c4.63478,1.97512 6.19903,7.81083 2.8644,11.6964c5.24072,-0.29552 11.3271,-0.27211 12.51512,5.98033c0.92352,4.86036 -1.43102,11.20309 -5.70089,13.98108c-0.55224,0.35929 1.20122,-0.54887 1.82838,-0.7507c5.8068,-1.58633 12.91653,-4.53502 17.7794,1.30753c0.90907,1.09222 0.42028,2.81274 0.54125,4.22862c0.41263,4.82948 1.04433,11.36799 0.00077,16.16352c-0.4854,2.23056 -0.53464,4.85694 -2.10015,6.51832c-1.04684,1.11095 -3.02482,0.43391 -4.54781,0.53677c-2.06197,0.13926 -4.13333,0 -6.2,0c-9.75024,0 -19.50572,0.09452 -29.25503,-0.03515c-26.55249,-0.3537 -53.04226,-1.2009 -79.12035,-6.48902z"/></g></g></svg>